<?xml version="1.0" encoding="UTF-8" standalone="no"?>
<svg
   version="1.1"
   viewBox="0 0 2939 933.2"
   id="svg207"
   sodipodi:docname="arcadepc1.svg"
   width="2939"
   height="933.20001"
   inkscape:version="1.2.2 (732a01da63, 2022-12-09)"
   xmlns:inkscape="http://www.inkscape.org/namespaces/inkscape"
   xmlns:sodipodi="http://sodipodi.sourceforge.net/DTD/sodipodi-0.dtd"
   xmlns:xlink="http://www.w3.org/1999/xlink"
   xmlns="http://www.w3.org/2000/svg"
   xmlns:svg="http://www.w3.org/2000/svg">
  <defs
     id="defs211">
    <linearGradient
       inkscape:collect="always"
       id="linearGradient1979">
      <stop
         style="stop-color:#17269b;stop-opacity:1;"
         offset="0"
         id="stop1975" />
      <stop
         style="stop-color:#ffffff;stop-opacity:1"
         offset="1"
         id="stop1977" />
    </linearGradient>
    <rect
       x="34.388435"
       y="40.640881"
       width="3770.2231"
       height="856.58472"
       id="rect444" />
    <rect
       x="71.903091"
       y="75.02932"
       width="3692.0676"
       height="787.8078"
       id="rect438" />
    <linearGradient
       inkscape:collect="always"
       xlink:href="#linearGradient1979"
       id="linearGradient1981"
       x1="72.134315"
       y1="40.165592"
       x2="72.379272"
       y2="53.34129"
       gradientUnits="userSpaceOnUse" />
  </defs>
  <sodipodi:namedview
     id="namedview209"
     pagecolor="#ffffff"
     bordercolor="#111111"
     borderopacity="1"
     inkscape:showpageshadow="0"
     inkscape:pageopacity="0"
     inkscape:pagecheckerboard="1"
     inkscape:deskcolor="#d1d1d1"
     showgrid="false"
     inkscape:zoom="0.63974993"
     inkscape:cx="590.85587"
     inkscape:cy="457.99145"
     inkscape:window-width="1920"
     inkscape:window-height="1009"
     inkscape:window-x="-8"
     inkscape:window-y="-8"
     inkscape:window-maximized="1"
     inkscape:current-layer="text442" />
  <g
     aria-label="Arcade PC  "
     transform="matrix(34.670408,0,0,53.62343,-1132.4096,-2022.9165)"
     id="text442"
     style="font-size:13.3333px;font-family:'SEGA LOGO FONT';-inkscape-font-specification:'SEGA LOGO FONT, Normal';white-space:pre;fill:url(#linearGradient1981);stroke:#f9ffff;stroke-width:0.162346;stroke-linecap:round;stroke-linejoin:round;paint-order:fill markers stroke">
    <g
       id="path296">
      <path
         style="color:#000000;-inkscape-font-specification:'SEGA LOGO FONT, Normal';stroke:none;stroke-linecap:butt;stroke-linejoin:miter;-inkscape-stroke:none"
         d="m 38.441995,51.616829 h 5.533319 l -3.386658,-9.399976 q -0.04,-0.133333 -0.239999,-0.239999 -0.2,-0.106667 -0.386666,-0.106667 -0.213333,0 -0.399999,0.106667 -0.173333,0.106666 -0.213333,0.239999 l -3.853323,10.959972 h -1.773329 l 4.119989,-11.626637 q 0.09333,-0.279999 0.266666,-0.533332 0.173333,-0.266666 0.426666,-0.466666 0.266666,-0.213332 0.613332,-0.333332 0.359999,-0.12 0.813331,-0.12 0.453332,0 0.799998,0.12 0.346666,0.12 0.599999,0.333332 0.266666,0.2 0.439998,0.466666 0.173333,0.253333 0.28,0.533332 l 4.119989,11.626637 h -7.75998 z m 0,-0.479999 v -0.506665 l -0.853331,2.54666 h -1.613329 l 3.666657,-10.62664 q 0.02667,-0.08 0.12,-0.133333 0.106666,-0.06667 0.199999,-0.06667 0.09333,0 0.2,0.06667 0.106666,0.05333 0.133333,0.133333 l 3.039992,8.586645 z m 1.519996,-4.946654 -1.066664,3.359992 h 2.173328 z"
         id="path303" />
      <path
         style="color:#000000;-inkscape-font-specification:'SEGA LOGO FONT, Normal';fill:#f9ffff;stroke:none;stroke-linecap:butt;stroke-linejoin:miter;-inkscape-stroke:none"
         d="m 39.962891,40.015625 c -0.309384,0 -0.590148,0.04177 -0.839844,0.125 -0.239082,0.08276 -0.453294,0.197401 -0.638672,0.345703 -0.175593,0.138626 -0.32301,0.301175 -0.443359,0.486328 -0.119103,0.17435 -0.210909,0.359282 -0.275391,0.552735 l -4.121094,11.625 a 0.08118112,0.08118112 0 0 0 0.07813,0.107421 h 1.773438 a 0.08118112,0.08118112 0 0 0 0.07617,-0.05469 l 3.853515,-10.958984 a 0.08118112,0.08118112 0 0 0 0,-0.0039 c 0.01911,-0.06368 0.07462,-0.1287 0.179688,-0.193359 0.111844,-0.06319 0.230029,-0.0957 0.357422,-0.0957 0.108982,0 0.223575,0.03148 0.347656,0.09766 0.122923,0.06556 0.183493,0.132476 0.201172,0.191406 a 0.08118112,0.08118112 0 0 0 0,0.0039 l 3.347656,9.291015 h -5.417969 a 0.08118112,0.08118112 0 0 0 -0.08008,0.08203 v 1.560547 a 0.08118112,0.08118112 0 0 0 0.08008,0.08008 h 7.759766 a 0.08118112,0.08118112 0 0 0 0.07813,-0.107421 L 42.158203,41.523437 a 0.08118112,0.08118112 0 0 0 0,-0.002 c -0.07321,-0.192188 -0.170476,-0.375272 -0.289062,-0.548828 v -0.002 c -0.119753,-0.183926 -0.272627,-0.344808 -0.455079,-0.482422 -0.177106,-0.149142 -0.385614,-0.264792 -0.625,-0.347656 -0.241446,-0.08358 -0.516788,-0.125 -0.826171,-0.125 z m 0,0.162109 c 0.295058,0 0.552662,0.03881 0.773437,0.115235 0.222835,0.07713 0.413549,0.183059 0.574219,0.318359 a 0.08118112,0.08118112 0 0 0 0.002,0.0039 c 0.170677,0.128009 0.311633,0.275709 0.421875,0.445313 a 0.08118112,0.08118112 0 0 0 0,0.002 c 0.112067,0.16379 0.202681,0.335018 0.271484,0.515625 l 4.082032,11.517578 h -7.564454 v -1.398437 h 5.451172 a 0.08118112,0.08118112 0 0 0 0.07617,-0.107422 l -3.384765,-9.396485 c -0.03565,-0.118847 -0.135556,-0.2124 -0.279297,-0.289062 -0.142586,-0.07605 -0.283923,-0.115235 -0.423828,-0.115235 -0.155751,0 -0.305397,0.03947 -0.441407,0.117188 a 0.08118112,0.08118112 0 0 0 -0.002,0.002 c -0.126038,0.07756 -0.213819,0.171065 -0.248047,0.285156 v -0.0039 L 35.4375,53.095703 h -1.601563 l 4.082032,-11.517578 a 0.08118112,0.08118112 0 0 0 0.002,-0.002 c 0.05978,-0.179331 0.144338,-0.350682 0.255859,-0.513672 a 0.08118112,0.08118112 0 0 0 0,-0.002 c 0.110761,-0.170401 0.247973,-0.319226 0.410156,-0.447266 0.169741,-0.135792 0.365462,-0.243119 0.587891,-0.320312 0.230302,-0.07677 0.494004,-0.115235 0.789063,-0.115235 z m 0,2.091797 c -0.08018,0 -0.16141,0.02763 -0.240235,0.07617 -4.56e-4,2.61e-4 4.55e-4,0.0017 0,0.002 -0.07384,0.04253 -0.133303,0.103045 -0.158203,0.177735 l -3.666016,10.625 a 0.08118112,0.08118112 0 0 0 0.07617,0.107421 h 1.613282 a 0.08118112,0.08118112 0 0 0 0.07813,-0.05469 l 0.695312,-2.074219 v 0.0078 a 0.08118112,0.08118112 0 0 0 0.08008,0.08203 h 4.894531 a 0.08118112,0.08118112 0 0 0 0.07617,-0.109375 l -3.039062,-8.583984 -0.002,-0.002 c -0.02657,-0.07685 -0.08894,-0.136656 -0.169922,-0.177734 -0.07882,-0.04853 -0.158116,-0.07617 -0.238281,-0.07617 z m 0,0.16211 c 0.04289,0 0.09416,0.01588 0.15625,0.05469 a 0.08118112,0.08118112 0 0 0 0.0059,0.0039 c 0.05901,0.0295 0.08453,0.05827 0.09375,0.08594 a 0.08118112,0.08118112 0 0 0 0,0.002 l 3.001953,8.476562 h -4.697266 v -0.423828 a 0.08118112,0.08118112 0 0 0 -0.158203,-0.02734 l -0.835937,2.492187 H 36.089844 L 39.71875,42.576172 c 0.01051,-0.03152 0.03405,-0.05936 0.08398,-0.08789 a 0.08118112,0.08118112 0 0 0 0.002,-0.002 c 0.06209,-0.03881 0.11531,-0.05469 0.158204,-0.05469 z m -0.002,3.677734 a 0.08118112,0.08118112 0 0 0 -0.07617,0.05664 l -1.066407,3.359375 a 0.08118112,0.08118112 0 0 0 0.07617,0.105468 h 2.173828 a 0.08118112,0.08118112 0 0 0 0.07813,-0.105468 l -1.107422,-3.361329 a 0.08118112,0.08118112 0 0 0 -0.07813,-0.05469 z m 0.002,0.34375 0.99414,3.015625 h -1.951172 z"
         id="path305" />
    </g>
    <g
       id="path298">
      <path
         style="color:#000000;-inkscape-font-specification:'SEGA LOGO FONT, Normal';stroke:none;stroke-linecap:butt;stroke-linejoin:miter;-inkscape-stroke:none"
         d="m 45.735308,53.176825 h 1.773329 v -9.01331 h 3.373324 q 0.106667,0 0.16,0.08 0.06667,0.06667 0.06667,0.16 0,0.09333 -0.06667,0.173333 -0.05333,0.08 -0.16,0.08 h -2.893326 v 8.519978 h 1.773329 v -4.573322 l 2.639994,4.573322 h 1.906661 l -3.79999,-6.679983 h 0.439999 q 0.413332,0 0.773331,-0.16 0.359999,-0.159999 0.613332,-0.439998 0.266666,-0.28 0.413332,-0.653332 0.146667,-0.386666 0.146667,-0.826665 0,-1.026664 -0.559999,-1.533329 -0.546665,-0.506666 -1.386663,-0.506666 h -5.21332 z m 9.226643,0 h 1.813329 l -3.039993,-5.439986 q 0.666665,-0.506665 1.053331,-1.33333 0.386666,-0.839998 0.386666,-1.986662 0,-0.906664 -0.333333,-1.693329 -0.319999,-0.786664 -0.893331,-1.37333 -0.573332,-0.586665 -1.346663,-0.919997 -0.773331,-0.333333 -1.653329,-0.333333 h -5.21332 v 1.799996 h 5.21332 q 0.559998,0 0.999997,0.186666 0.453333,0.186666 0.773332,0.519999 0.319999,0.333332 0.493332,0.799998 0.173333,0.466665 0.173333,1.01333 0,0.533332 -0.173333,0.986665 -0.173333,0.439998 -0.453332,0.773331 -0.28,0.333332 -0.653332,0.533332 -0.359999,0.199999 -0.746665,0.226666 z"
         id="path309" />
      <path
         style="color:#000000;-inkscape-font-specification:'SEGA LOGO FONT, Normal';fill:#f9ffff;stroke:none;stroke-linecap:butt;stroke-linejoin:miter;-inkscape-stroke:none"
         d="m 45.734375,40.015625 a 0.08118112,0.08118112 0 0 0 -0.08008,0.08203 v 1.798828 a 0.08118112,0.08118112 0 0 0 0.08008,0.08203 h 5.214844 c 0.364312,0 0.684862,0.06008 0.966797,0.179687 a 0.08118112,0.08118112 0 0 0 0.002,0 c 0.29271,0.120527 0.540781,0.288085 0.746093,0.501953 0.205298,0.213851 0.362535,0.469745 0.47461,0.771485 0.111953,0.301411 0.167969,0.628511 0.167969,0.984375 0,0.34676 -0.05621,0.666681 -0.167969,0.958984 -0.112517,0.28487 -0.259349,0.53559 -0.439453,0.75 -0.180381,0.214739 -0.389119,0.385214 -0.628907,0.513672 a 0.08118112,0.08118112 0 0 0 -0.002,0 c -0.230553,0.128085 -0.467284,0.199858 -0.71289,0.216797 a 0.08118112,0.08118112 0 0 0 -0.06445,0.121093 l 3.601562,6.240235 a 0.08118112,0.08118112 0 0 0 0.07031,0.04102 h 1.8125 a 0.08118112,0.08118112 0 0 0 0.07031,-0.121093 l -3.013672,-5.394532 c 0.427775,-0.340194 0.777979,-0.767386 1.029297,-1.304687 a 0.08118112,0.08118112 0 0 0 0.002,0 c 0.263644,-0.572742 0.392578,-1.247918 0.392578,-2.021484 0,-0.61439 -0.113251,-1.189852 -0.339843,-1.72461 -0.216984,-0.532514 -0.521166,-1.0004 -0.910157,-1.398437 -0.3896,-0.398661 -0.84634,-0.711313 -1.371093,-0.9375 -0.525832,-0.226652 -1.088633,-0.339844 -1.685547,-0.339844 z m 0.08203,0.162109 h 5.132813 c 0.576415,0 1.115818,0.108381 1.621093,0.326172 0.506354,0.218256 0.945472,0.518786 1.320313,0.902344 0.374821,0.383539 0.667342,0.832363 0.876953,1.347656 a 0.08118112,0.08118112 0 0 0 0,0.002 c 0.217851,0.514128 0.326172,1.065662 0.326172,1.660157 0,0.755317 -0.126996,1.405871 -0.378906,1.953125 -0.252888,0.540657 -0.595767,0.973252 -1.029297,1.302734 a 0.08118112,0.08118112 0 0 0 -0.02148,0.105469 l 2.972657,5.318359 h -1.626953 l -3.527344,-6.113281 c 0.227213,-0.03107 0.451963,-0.08359 0.664062,-0.201172 0.257989,-0.138209 0.484783,-0.323031 0.677735,-0.552734 0.192673,-0.229374 0.34834,-0.494226 0.466797,-0.794922 a 0.08118112,0.08118112 0 0 0 0,-0.002 c 0.119347,-0.312141 0.179687,-0.651277 0.179687,-1.015625 0,-0.373023 -0.06053,-0.720208 -0.179687,-1.041016 -0.119036,-0.320481 -0.288398,-0.597534 -0.509766,-0.828125 -0.221352,-0.230576 -0.489048,-0.410702 -0.800781,-0.539063 v 0.002 c -0.304731,-0.12928 -0.648899,-0.19336 -1.03125,-0.19336 h -5.132813 z m -0.08203,2.117188 a 0.08118112,0.08118112 0 0 0 -0.08008,0.08203 v 10.800781 a 0.08118112,0.08118112 0 0 0 0.08008,0.08008 h 1.773437 a 0.08118112,0.08118112 0 0 0 0.08203,-0.08008 v -8.933593 h 3.292968 c 0.05082,0 0.0701,0.01237 0.0918,0.04492 a 0.08118112,0.08118112 0 0 0 0.0098,0.01172 c 0.03106,0.03106 0.04297,0.06062 0.04297,0.103516 0,0.04289 -0.01237,0.07968 -0.04687,0.121094 a 0.08118112,0.08118112 0 0 0 -0.0059,0.0059 c -0.0217,0.03255 -0.04098,0.04492 -0.0918,0.04492 h -2.894531 a 0.08118112,0.08118112 0 0 0 -0.08008,0.08008 v 8.521484 a 0.08118112,0.08118112 0 0 0 0.08008,0.08008 h 1.773438 a 0.08118112,0.08118112 0 0 0 0.08203,-0.08008 v -4.269531 l 2.488281,4.308594 a 0.08118112,0.08118112 0 0 0 0.07031,0.04102 h 1.90625 a 0.08118112,0.08118112 0 0 0 0.07031,-0.121093 l -3.730469,-6.558594 h 0.300782 c 0.286028,0 0.556105,-0.05662 0.80664,-0.167969 0.249601,-0.110933 0.46211,-0.263837 0.638672,-0.458984 0.184528,-0.194067 0.328522,-0.420221 0.429688,-0.677735 a 0.08118112,0.08118112 0 0 0 0,-0.002 c 0.101399,-0.267323 0.152343,-0.553117 0.152343,-0.855468 0,-0.699201 -0.192378,-1.23572 -0.585937,-1.591797 -0.379646,-0.351868 -0.865088,-0.529297 -1.441406,-0.529297 z m 0.08203,0.164062 h 5.132813 c 0.543677,0 0.980838,0.160689 1.330078,0.484375 a 0.08118112,0.08118112 0 0 0 0.002,0 c 0.353105,0.319476 0.533203,0.802973 0.533203,1.472657 0,0.284313 -0.04842,0.550597 -0.142578,0.798828 -0.09411,0.238637 -0.224672,0.4486 -0.394531,0.626953 a 0.08118112,0.08118112 0 0 0 -0.002,0 c -0.161216,0.178185 -0.35554,0.317523 -0.585938,0.419922 -0.229463,0.101984 -0.475154,0.154297 -0.740234,0.154297 h -0.441407 a 0.08118112,0.08118112 0 0 0 -0.07031,0.121093 l 3.732422,6.558594 H 52.449219 L 49.832031,48.5625 a 0.08118112,0.08118112 0 0 0 -0.15039,0.04102 v 4.492187 h -1.611329 v -8.357422 h 2.8125 c 0.08984,0 0.172848,-0.04347 0.222657,-0.115234 0.05182,-0.06424 0.08398,-0.139294 0.08398,-0.21875 0,-0.0773 -0.03363,-0.150257 -0.08594,-0.207031 -0.04995,-0.07084 -0.131486,-0.115235 -0.220704,-0.115235 h -3.375 a 0.08118112,0.08118112 0 0 0 -0.08008,0.08203 v 8.931641 h -1.611328 z"
         id="path311" />
    </g>
    <g
       id="path300">
      <path
         style="color:#000000;-inkscape-font-specification:'SEGA LOGO FONT, Normal';stroke:none;stroke-linecap:butt;stroke-linejoin:miter;-inkscape-stroke:none"
         d="m 64.788584,53.176825 h -5.05332 q -0.719998,0 -1.399997,-0.306666 -0.666665,-0.319999 -1.186663,-0.853331 -0.506666,-0.546665 -0.813332,-1.279997 -0.306666,-0.746664 -0.306666,-1.586662 v -5.026654 q 0,-0.839998 0.306666,-1.57333 0.306666,-0.746664 0.813332,-1.279996 0.519998,-0.546666 1.186663,-0.853332 0.679999,-0.319999 1.399997,-0.319999 h 5.05332 v 1.773329 h -4.839987 q -0.506666,0 -0.906665,0.2 -0.399999,0.199999 -0.679998,0.519998 -0.266666,0.319999 -0.413332,0.733332 -0.146667,0.399999 -0.146667,0.799998 v 5.026654 q 0,0.399999 0.146667,0.813331 0.146666,0.399999 0.413332,0.719998 0.279999,0.319999 0.679998,0.519999 0.399999,0.199999 0.906665,0.199999 h 4.839987 z m -4.426655,-4.026656 h 4.426655 v 1.773329 h -4.666655 q -0.466665,0 -0.813331,-0.186667 Q 58.961932,50.550165 58.735266,50.256833 58.5086,49.9635 58.3886,49.603501 58.281934,49.230169 58.281934,48.883503 v -4.493322 q 0,-0.346666 0.106666,-0.706665 0.12,-0.373333 0.346666,-0.666665 0.226666,-0.293333 0.573332,-0.479999 0.346666,-0.186666 0.813331,-0.186666 h 4.666655 v 1.773329 h -4.426655 q -0.08,0 -0.173333,0.09333 -0.08,0.09333 -0.08,0.253333 V 48.8035 q 0,0.346666 0.173333,0.346666 z"
         id="path315" />
      <path
         style="color:#000000;-inkscape-font-specification:'SEGA LOGO FONT, Normal';fill:#f9ffff;stroke:none;stroke-linecap:butt;stroke-linejoin:miter;-inkscape-stroke:none"
         d="m 59.734375,40.015625 c -0.492024,0 -0.970274,0.110093 -1.433594,0.328125 -0.4538,0.208748 -0.857557,0.499591 -1.210937,0.871094 -0.345173,0.363339 -0.622246,0.798662 -0.830078,1.304687 -0.2087,0.499065 -0.3125,1.03364 -0.3125,1.603516 v 5.027344 c 0,0.569876 0.103992,1.109516 0.3125,1.617187 0.207812,0.496944 0.48555,0.932961 0.830078,1.304688 a 0.08118112,0.08118112 0 0 0 0,0.002 c 0.353104,0.362159 0.758057,0.651758 1.210937,0.86914 a 0.08118112,0.08118112 0 0 0 0.002,0 c 0.46312,0.208858 0.940118,0.314454 1.431641,0.314453 h 5.054687 a 0.08118112,0.08118112 0 0 0 0.08008,-0.08008 v -1.773437 a 0.08118112,0.08118112 0 0 0 -0.08008,-0.08203 h -4.839843 c -0.327097,0 -0.61669,-0.06421 -0.871094,-0.191407 -0.257953,-0.128977 -0.474727,-0.294776 -0.654297,-0.5 -0.171814,-0.206176 -0.303726,-0.437007 -0.398437,-0.695312 -0.09502,-0.267777 -0.142578,-0.528412 -0.142579,-0.785156 v -5.027344 c 10e-7,-0.256745 0.04781,-0.51303 0.142579,-0.771485 0.0946,-0.266605 0.227498,-0.501586 0.398437,-0.707031 0.17957,-0.205223 0.396344,-0.372977 0.654297,-0.501953 0.254404,-0.127202 0.543997,-0.191406 0.871094,-0.191406 h 4.839843 a 0.08118112,0.08118112 0 0 0 0.08008,-0.08008 v -1.773438 a 0.08118112,0.08118112 0 0 0 -0.08008,-0.08203 z m 0,0.162109 h 4.972656 v 1.611328 h -4.757812 c -0.348458,0 -0.664432,0.06952 -0.94336,0.208985 -0.275378,0.137689 -0.511316,0.317621 -0.705078,0.539062 a 0.08118112,0.08118112 0 0 0 -0.002,0.002 c -0.184095,0.220915 -0.325027,0.473868 -0.425781,0.757813 -0.100331,0.274257 -0.152344,0.550216 -0.152344,0.826172 v 5.027344 c 0,0.276587 0.05181,0.556512 0.152344,0.839843 a 0.08118112,0.08118112 0 0 0 0,0.002 c 0.100842,0.275026 0.242041,0.523653 0.425781,0.744141 a 0.08118112,0.08118112 0 0 0 0.002,0 c 0.193762,0.221442 0.4297,0.401373 0.705078,0.539063 0.278928,0.139463 0.594902,0.208984 0.94336,0.208984 h 4.757812 v 1.611328 h -4.972656 c -0.467834,0 -0.920312,-0.09934 -1.363281,-0.298828 h -0.002 c -0.434933,-0.208972 -0.82058,-0.487916 -1.160157,-0.835938 -0.331026,-0.357159 -0.597753,-0.775028 -0.798828,-1.255859 -0.200379,-0.48788 -0.300781,-1.004567 -0.300781,-1.554687 v -5.027344 c 0,-0.55012 0.100594,-1.062306 0.300781,-1.541016 a 0.08118112,0.08118112 0 0 0 0,-0.002 c 0.201056,-0.489526 0.466494,-0.906137 0.796875,-1.253906 0.33995,-0.357384 0.727024,-0.635798 1.16211,-0.835938 0.443345,-0.208632 0.897261,-0.3125 1.365234,-0.3125 z m 0.386719,2.091797 c -0.321933,0 -0.607065,0.06366 -0.851563,0.195313 -0.240235,0.129357 -0.439397,0.297147 -0.597656,0.501953 -0.157061,0.203254 -0.278667,0.434239 -0.361328,0.691406 a 0.08118112,0.08118112 0 0 0 0,0.002 c -0.07313,0.246804 -0.109375,0.491033 -0.109375,0.730469 v 4.492187 c 0,0.239436 0.03644,0.486919 0.109375,0.742188 a 0.08118112,0.08118112 0 0 0 0.002,0.0039 c 0.08276,0.24827 0.202678,0.47495 0.359375,0.677735 0.158259,0.204805 0.357421,0.372595 0.597656,0.501953 0.244498,0.131653 0.52963,0.195312 0.851563,0.195312 h 4.667968 a 0.08118112,0.08118112 0 0 0 0.08008,-0.08008 v -1.773437 a 0.08118112,0.08118112 0 0 0 -0.08008,-0.08203 h -4.427734 -0.08008 c -0.03072,0 -0.03743,-0.0026 -0.05664,-0.04102 -0.01921,-0.03842 -0.03516,-0.115819 -0.03516,-0.22461 v -4.332031 c 0,-0.09231 0.02276,-0.154486 0.06055,-0.199219 0.05139,-0.04987 0.09027,-0.06641 0.111328,-0.06641 h 4.427734 a 0.08118112,0.08118112 0 0 0 0.08008,-0.08203 v -1.773438 a 0.08118112,0.08118112 0 0 0 -0.08008,-0.08008 z m 0,0.16211 h 4.585937 v 1.611328 h -4.345703 c -0.0849,0 -0.160047,0.04677 -0.230469,0.117187 a 0.08118112,0.08118112 0 0 0 -0.0039,0.0039 c -0.06825,0.07962 -0.09961,0.186444 -0.09961,0.306641 v 4.332031 c 0,0.12232 0.01416,0.219737 0.05273,0.296875 0.03857,0.07714 0.116337,0.13086 0.201172,0.13086 h 0.08008 4.345703 v 1.611328 h -4.585937 c -0.300287,0 -0.555714,-0.05855 -0.773438,-0.175781 -0.221985,-0.119531 -0.404866,-0.272681 -0.548828,-0.458985 -0.144632,-0.187171 -0.254849,-0.394966 -0.332031,-0.625 -0.06929,-0.242506 -0.103516,-0.476433 -0.103516,-0.699219 v -4.492187 c 0,-0.222163 0.03481,-0.449129 0.103516,-0.681641 v -0.002 c 0.07731,-0.239902 0.187219,-0.453221 0.332031,-0.640625 0.143962,-0.186304 0.326843,-0.339454 0.548828,-0.458984 0.217724,-0.117236 0.473151,-0.175781 0.773438,-0.175781 z"
         id="path317" />
    </g>
    <g
       id="path302">
      <path
         style="color:#000000;-inkscape-font-specification:'SEGA LOGO FONT, Normal';stroke:none;stroke-linecap:butt;stroke-linejoin:miter;-inkscape-stroke:none"
         d="m 69.361894,51.616829 h 5.533319 l -3.386658,-9.399976 q -0.04,-0.133333 -0.239999,-0.239999 -0.2,-0.106667 -0.386666,-0.106667 -0.213333,0 -0.399999,0.106667 -0.173333,0.106666 -0.213333,0.239999 l -3.853323,10.959972 h -1.773329 l 4.119989,-11.626637 q 0.09333,-0.279999 0.266666,-0.533332 0.173333,-0.266666 0.426666,-0.466666 0.266666,-0.213332 0.613332,-0.333332 0.359999,-0.12 0.813331,-0.12 0.453332,0 0.799998,0.12 0.346666,0.12 0.599999,0.333332 0.266666,0.2 0.439998,0.466666 0.173333,0.253333 0.28,0.533332 l 4.119989,11.626637 h -7.75998 z m 0,-0.479999 v -0.506665 l -0.853331,2.54666 h -1.613329 l 3.666657,-10.62664 q 0.02667,-0.08 0.12,-0.133333 0.106666,-0.06667 0.199999,-0.06667 0.09333,0 0.2,0.06667 0.106666,0.05333 0.133333,0.133333 l 3.039992,8.586645 z m 1.519996,-4.946654 -1.066664,3.359992 h 2.173328 z"
         id="path321" />
      <path
         style="color:#000000;-inkscape-font-specification:'SEGA LOGO FONT, Normal';fill:#f9ffff;stroke:none;stroke-linecap:butt;stroke-linejoin:miter;-inkscape-stroke:none"
         d="m 70.882812,40.015625 c -0.309383,0 -0.590147,0.04177 -0.839843,0.125 -0.239082,0.08276 -0.453294,0.197401 -0.638672,0.345703 -0.175593,0.138626 -0.32301,0.301175 -0.44336,0.486328 -0.119102,0.17435 -0.210908,0.359282 -0.27539,0.552735 l -4.121094,11.625 a 0.08118112,0.08118112 0 0 0 0.07813,0.107421 h 1.773438 a 0.08118112,0.08118112 0 0 0 0.07617,-0.05469 l 3.853516,-10.958984 a 0.08118112,0.08118112 0 0 0 0,-0.0039 c 0.01911,-0.06368 0.07462,-0.1287 0.179688,-0.193359 0.111844,-0.06319 0.230029,-0.0957 0.357421,-0.0957 0.108983,0 0.223576,0.03148 0.347657,0.09766 0.122923,0.06556 0.183493,0.132476 0.201172,0.191406 a 0.08118112,0.08118112 0 0 0 0,0.0039 l 3.347656,9.291015 h -5.417969 a 0.08118112,0.08118112 0 0 0 -0.08008,0.08203 v 1.560547 a 0.08118112,0.08118112 0 0 0 0.08008,0.08008 h 7.759766 a 0.08118112,0.08118112 0 0 0 0.07813,-0.107421 L 73.078125,41.523437 a 0.08118112,0.08118112 0 0 0 0,-0.002 c -0.07322,-0.192188 -0.170476,-0.375272 -0.289063,-0.548828 v -0.002 c -0.119752,-0.183926 -0.272626,-0.344808 -0.455078,-0.482422 -0.177106,-0.149142 -0.385614,-0.264792 -0.625,-0.347656 -0.241446,-0.08358 -0.516788,-0.125 -0.826172,-0.125 z m 0,0.162109 c 0.295059,0 0.552663,0.03881 0.773438,0.115235 0.222835,0.07713 0.413549,0.183059 0.574219,0.318359 a 0.08118112,0.08118112 0 0 0 0.002,0.0039 c 0.170677,0.128009 0.311633,0.275709 0.421875,0.445313 a 0.08118112,0.08118112 0 0 0 0,0.002 c 0.112067,0.16379 0.202681,0.335018 0.271484,0.515625 l 4.082031,11.517578 h -7.564453 v -1.398437 h 5.451172 a 0.08118112,0.08118112 0 0 0 0.07617,-0.107422 l -3.384766,-9.396485 c -0.03565,-0.118847 -0.135555,-0.2124 -0.279296,-0.289062 -0.142586,-0.07605 -0.283923,-0.115235 -0.423829,-0.115235 -0.15575,0 -0.305396,0.03947 -0.441406,0.117188 a 0.08118112,0.08118112 0 0 0 -0.002,0.002 c -0.126039,0.07756 -0.213819,0.171065 -0.248047,0.285156 v -0.0039 l -3.833984,10.90625 h -1.601563 l 4.082032,-11.517578 a 0.08118112,0.08118112 0 0 0 0.002,-0.002 c 0.05978,-0.179331 0.144338,-0.350682 0.255859,-0.513672 a 0.08118112,0.08118112 0 0 0 0,-0.002 c 0.110761,-0.170401 0.247972,-0.319226 0.410156,-0.447266 0.169741,-0.135792 0.365462,-0.243119 0.587891,-0.320312 0.230302,-0.07677 0.494004,-0.115235 0.789062,-0.115235 z m 0,2.091797 c -0.08018,0 -0.161409,0.02763 -0.240234,0.07617 -4.56e-4,2.61e-4 4.55e-4,0.0017 0,0.002 -0.07384,0.04253 -0.133303,0.103045 -0.158203,0.177735 l -3.666016,10.625 a 0.08118112,0.08118112 0 0 0 0.07617,0.107421 h 1.613281 a 0.08118112,0.08118112 0 0 0 0.07813,-0.05469 l 0.695313,-2.074219 v 0.0078 a 0.08118112,0.08118112 0 0 0 0.08008,0.08203 h 4.894531 a 0.08118112,0.08118112 0 0 0 0.07617,-0.109375 l -3.039062,-8.583984 -0.002,-0.002 c -0.02657,-0.07685 -0.08894,-0.136656 -0.169922,-0.177734 -0.07882,-0.04853 -0.158116,-0.07617 -0.238282,-0.07617 z m 0,0.16211 c 0.04289,0 0.09416,0.01588 0.15625,0.05469 a 0.08118112,0.08118112 0 0 0 0.0059,0.0039 c 0.05901,0.0295 0.08453,0.05827 0.09375,0.08594 a 0.08118112,0.08118112 0 0 0 0,0.002 l 3,8.476562 h -4.695313 v -0.423828 a 0.08118112,0.08118112 0 0 0 -0.158203,-0.02734 l -0.835937,2.492187 h -1.439453 l 3.628906,-10.519531 c 0.01051,-0.03152 0.03405,-0.05936 0.08398,-0.08789 a 0.08118112,0.08118112 0 0 0 0.002,-0.002 c 0.06209,-0.03881 0.115309,-0.05469 0.158203,-0.05469 z m -0.002,3.677734 a 0.08118112,0.08118112 0 0 0 -0.07617,0.05664 l -1.066406,3.359375 a 0.08118112,0.08118112 0 0 0 0.07617,0.105468 h 2.173828 a 0.08118112,0.08118112 0 0 0 0.07813,-0.105468 l -1.107422,-3.361329 a 0.08118112,0.08118112 0 0 0 -0.07813,-0.05469 z m 0.002,0.34375 0.994141,3.015625 h -1.951172 z"
         id="path323" />
    </g>
    <g
       id="path304">
      <path
         style="color:#000000;-inkscape-font-specification:'SEGA LOGO FONT, Normal';stroke:none;stroke-linecap:butt;stroke-linejoin:miter;-inkscape-stroke:none"
         d="M 81.975195,51.403496 H 78.335204 V 44.55018 h -1.679995 v 8.626645 h 5.13332 q 0.973331,0 1.666662,-0.226666 0.706665,-0.226666 1.159997,-0.706665 0.453333,-0.493332 0.666665,-1.25333 0.213333,-0.773331 0.213333,-1.839995 v -5.026654 q 0,-1.106664 -0.213333,-1.866662 -0.213332,-0.773332 -0.666665,-1.25333 -0.453332,-0.479999 -1.159997,-0.693332 -0.693331,-0.213333 -1.666662,-0.213333 h -5.13332 v 1.773329 h 5.306653 q 0.506665,0 0.853331,0.146666 0.359999,0.133333 0.573332,0.386666 0.226666,0.253333 0.319999,0.599999 0.106666,0.346665 0.106666,0.746664 v 5.773319 q 0,0.399999 -0.106666,0.746665 -0.09333,0.346666 -0.319999,0.599998 -0.213333,0.253333 -0.559999,0.399999 -0.346665,0.133333 -0.853331,0.133333 z M 81.30853,44.123515 q 0.16,0 0.253333,0.09333 0.106666,0.09333 0.106666,0.253333 V 48.8035 q 0,0.16 -0.106666,0.253333 -0.09333,0.09333 -0.253333,0.09333 h -0.293332 q -0.333333,0 -0.333333,-0.346666 V 44.55018 h -1.866662 v 6.373318 h 2.986659 q 0.466666,0 0.759998,-0.08 0.306666,-0.09333 0.466666,-0.293333 0.173333,-0.199999 0.239999,-0.506665 0.06667,-0.319999 0.06667,-0.786665 v -5.239987 q 0,-0.346665 -0.06667,-0.653331 -0.06667,-0.306666 -0.239999,-0.533332 -0.173333,-0.226666 -0.479999,-0.346666 -0.293333,-0.133333 -0.759998,-0.133333 h -5.13332 v 1.773329 z"
         id="path327" />
      <path
         style="color:#000000;-inkscape-font-specification:'SEGA LOGO FONT, Normal';fill:#f9ffff;stroke:none;stroke-linecap:butt;stroke-linejoin:miter;-inkscape-stroke:none"
         d="m 76.654297,40.015625 a 0.08118112,0.08118112 0 0 0 -0.08008,0.08203 v 1.773438 a 0.08118112,0.08118112 0 0 0 0.08008,0.08008 h 5.30664 c 0.329944,0 0.604225,0.04838 0.822266,0.140625 a 0.08118112,0.08118112 0 0 0 0.0039,0.002 c 0.229195,0.08489 0.406812,0.204281 0.539063,0.361328 a 0.08118112,0.08118112 0 0 0 0.002,0.002 c 0.142534,0.159303 0.24351,0.348385 0.302734,0.56836 a 0.08118112,0.08118112 0 0 0 0,0.002 c 0.06853,0.222722 0.103516,0.463206 0.103516,0.722656 v 5.773437 c 0,0.259451 -0.03499,0.499934 -0.103516,0.722657 a 0.08118112,0.08118112 0 0 0 0,0.0039 c -0.05922,0.219974 -0.160199,0.407104 -0.302734,0.566406 a 0.08118112,0.08118112 0 0 0 -0.002,0.002 c -0.133239,0.158222 -0.308129,0.283383 -0.529297,0.376953 -0.218496,0.08375 -0.492374,0.126954 -0.822266,0.126954 h -3.558593 v -6.771485 a 0.08118112,0.08118112 0 0 0 -0.08008,-0.08203 h -1.68164 a 0.08118112,0.08118112 0 0 0 -0.08008,0.08203 v 8.626953 a 0.08118112,0.08118112 0 0 0 0.08008,0.08008 h 5.134765 c 0.655188,0 1.218523,-0.07587 1.691407,-0.230468 0.48217,-0.154659 0.881061,-0.397847 1.193359,-0.728516 a 0.08118112,0.08118112 0 0 0 0.002,0 c 0.311981,-0.339508 0.538565,-0.77044 0.683594,-1.287109 0.144766,-0.524777 0.216797,-1.144808 0.216797,-1.861328 v -5.027344 c 0,-0.742991 -0.0718,-1.372137 -0.216797,-1.888672 -0.144996,-0.525613 -0.372748,-0.955912 -0.685547,-1.287109 -0.312556,-0.330942 -0.712675,-0.569142 -1.195312,-0.714844 -0.472425,-0.145362 -1.034636,-0.216797 -1.689454,-0.216797 z m 0.08203,0.162109 h 5.052734 c 0.642957,0 1.190563,0.07186 1.642579,0.210938 0.459582,0.138742 0.833113,0.360865 1.125,0.669922 0.291644,0.308799 0.507038,0.715207 0.646484,1.220703 0.139451,0.496794 0.210937,1.111191 0.210937,1.84375 v 5.027344 c 0,0.705697 -0.07126,1.312028 -0.210937,1.818359 -0.139147,0.495712 -0.354871,0.900759 -0.646484,1.21875 -3.7e-4,3.91e-4 -0.0016,-3.91e-4 -0.002,0 -3.64e-4,3.97e-4 3.65e-4,0.0016 0,0.002 -0.29188,0.30837 -0.665887,0.536331 -1.125,0.683594 -0.451556,0.147624 -0.998039,0.222656 -1.640625,0.222656 h -5.052734 v -8.464844 h 1.517578 v 6.773438 a 0.08118112,0.08118112 0 0 0 0.08203,0.08008 h 3.638672 c 0.344898,0 0.639336,-0.04503 0.882813,-0.138672 a 0.08118112,0.08118112 0 0 0 0.002,0 c 0.240151,-0.101602 0.438855,-0.24328 0.589844,-0.421875 0.158718,-0.177388 0.270538,-0.388496 0.335937,-0.628906 0.07369,-0.239498 0.111328,-0.497603 0.111328,-0.771485 V 43.75 c 0,-0.273881 -0.03764,-0.530034 -0.111328,-0.769531 -0.06509,-0.240242 -0.175815,-0.4515 -0.333984,-0.628907 -0.152193,-0.180729 -0.356619,-0.317266 -0.607422,-0.410156 -0.243569,-0.102408 -0.538683,-0.152344 -0.882813,-0.152344 h -5.224609 z m -0.08203,2.091797 a 0.08118112,0.08118112 0 0 0 -0.08008,0.08008 v 1.773438 a 0.08118112,0.08118112 0 0 0 0.08008,0.08203 h 4.654297 c 0.09088,0 0.14949,0.02254 0.195312,0.06836 a 0.08118112,0.08118112 0 0 0 0.0039,0.0039 c 0.05381,0.04708 0.08008,0.104729 0.08008,0.193359 v 4.332031 c 0,0.08863 -0.02627,0.146275 -0.08008,0.19336 A 0.08118112,0.08118112 0 0 0 81.503906,49 c -0.04582,0.04582 -0.104426,0.06836 -0.195312,0.06836 h -0.292969 c -0.09704,0 -0.15459,-0.02226 -0.191406,-0.06055 -0.03682,-0.03829 -0.06055,-0.102531 -0.06055,-0.205078 v -4.251953 a 0.08118112,0.08118112 0 0 0 -0.08203,-0.08203 h -1.867188 a 0.08118112,0.08118112 0 0 0 -0.08008,0.08203 v 6.373047 a 0.08118112,0.08118112 0 0 0 0.08008,0.08008 h 2.988281 c 0.315749,0 0.575154,-0.02582 0.78125,-0.08203 a 0.08118112,0.08118112 0 0 0 0.002,0 c 0.215161,-0.06548 0.385343,-0.171124 0.503907,-0.318359 l 0.002,-0.002 c 0.124741,-0.144653 0.209294,-0.326812 0.255859,-0.541015 0.04605,-0.221046 0.06836,-0.489712 0.06836,-0.804688 v -5.238281 c 0,-0.236313 -0.02256,-0.461226 -0.06836,-0.671875 -0.04667,-0.214656 -0.130674,-0.4033 -0.253906,-0.564453 -0.124539,-0.162859 -0.297983,-0.286697 -0.511719,-0.371094 -5.02e-4,-2.28e-4 -0.0015,2.28e-4 -0.002,0 -0.210073,-0.09513 -0.472936,-0.140625 -0.791016,-0.140625 z m 0.08203,0.16211 h 5.052734 c 0.303379,0 0.54577,0.04282 0.726563,0.125 a 0.08118112,0.08118112 0 0 0 0.0039,0.002 c 0.193126,0.07557 0.339591,0.18206 0.445313,0.320312 0.107873,0.141068 0.182383,0.307722 0.224609,0.501953 0.0431,0.19824 0.06445,0.410813 0.06445,0.636719 v 5.238281 c 0,0.307245 -0.02161,0.565866 -0.06445,0.771485 -0.0422,0.192836 -0.117533,0.347455 -0.222656,0.46875 a 0.08118112,0.08118112 0 0 0 -0.002,0.0039 c -0.09471,0.11839 -0.233027,0.206963 -0.425782,0.265625 -0.184852,0.0502 -0.430658,0.07617 -0.736328,0.07617 h -2.90625 v -6.210938 h 1.705078 v 4.171875 c 0,0.128564 0.03117,0.23914 0.105469,0.316407 0.0743,0.07727 0.183413,0.111328 0.308594,0.111328 h 0.292969 c 0.121523,0 0.230103,-0.03782 0.308593,-0.115235 0.08712,-0.0773 0.132813,-0.18873 0.132813,-0.3125 v -4.332031 c 0,-0.123772 -0.0457,-0.235203 -0.132813,-0.3125 -0.07849,-0.07742 -0.187072,-0.115234 -0.308593,-0.115234 h -4.572266 z"
         id="path329" />
    </g>
    <g
       id="path306">
      <path
         style="color:#000000;-inkscape-font-specification:'SEGA LOGO FONT, Normal';stroke:none;stroke-linecap:butt;stroke-linejoin:miter;-inkscape-stroke:none"
         d="m 86.001854,44.123515 q 0,-0.839998 0.306666,-1.57333 0.306666,-0.746664 0.813331,-1.279996 0.519999,-0.546666 1.186664,-0.853332 0.679998,-0.319999 1.399996,-0.319999 h 5.053321 v 1.773329 h -4.839988 q -0.506665,0 -0.906664,0.2 -0.399999,0.199999 -0.679999,0.519998 -0.266666,0.319999 -0.413332,0.733332 -0.146666,0.399999 -0.146666,0.799998 v 5.026654 q 0,0.399999 0.146666,0.813331 0.146666,0.399999 0.413332,0.719998 0.28,0.319999 0.679999,0.519999 0.399999,0.199999 0.906664,0.199999 h 4.839988 v 1.773329 h -5.053321 q -0.719998,0 -1.399996,-0.306666 Q 87.64185,52.55016 87.121851,52.016828 86.615186,51.470163 86.30852,50.736831 86.001854,49.990167 86.001854,49.150169 Z m 2.253328,2.293327 v -2.026661 q 0,-0.346666 0.106666,-0.706665 0.12,-0.373333 0.346666,-0.666665 0.226666,-0.293333 0.573332,-0.479999 0.346665,-0.186666 0.813331,-0.186666 h 4.666655 v 1.773329 h -4.626655 q -0.08,0 -0.173333,0.09333 -0.08,0.09333 -0.08,0.253333 v 0.186666 h 3.866657 v 1.759995 z m 0,0.439999 h 5.493319 v 1.773329 h -3.866657 v 0.173333 q 0,0.16 0.08,0.253333 0.09333,0.09333 0.173333,0.09333 h 4.626655 v 1.773329 h -4.666655 q -0.466666,0 -0.813331,-0.186667 Q 88.93518,50.550165 88.708514,50.256833 88.481848,49.9635 88.361848,49.603501 88.255182,49.230169 88.255182,48.883503 Z"
         id="path333" />
      <path
         style="color:#000000;-inkscape-font-specification:'SEGA LOGO FONT, Normal';fill:#f9ffff;stroke:none;stroke-linecap:butt;stroke-linejoin:miter;-inkscape-stroke:none"
         d="m 89.708984,40.015625 c -0.492023,0 -0.972228,0.110093 -1.435547,0.328125 -0.453212,0.208701 -0.857932,0.499985 -1.210937,0.871094 -0.345172,0.363339 -0.620293,0.798662 -0.828125,1.304687 -0.2087,0.499065 -0.314453,1.03364 -0.314453,1.603516 v 5.027344 c 0,0.569876 0.105945,1.109516 0.314453,1.617187 0.207813,0.496944 0.483598,0.932961 0.828125,1.304688 a 0.08118112,0.08118112 0 0 0 0.002,0.002 c 0.353105,0.362159 0.756104,0.651758 1.208984,0.86914 a 0.08118112,0.08118112 0 0 0 0.002,0 c 0.463119,0.208858 0.942071,0.314454 1.433593,0.314453 h 5.052735 a 0.08118112,0.08118112 0 0 0 0.08203,-0.08008 v -1.773437 a 0.08118112,0.08118112 0 0 0 -0.08203,-0.08203 h -4.839844 c -0.327096,0 -0.61669,-0.06421 -0.871094,-0.191407 -0.257467,-0.128734 -0.472967,-0.295308 -0.652344,-0.5 -0.171813,-0.206176 -0.305678,-0.437007 -0.40039,-0.695312 -0.09502,-0.267777 -0.142578,-0.528412 -0.142578,-0.785156 v -5.027344 c 0,-0.256745 0.04781,-0.51303 0.142578,-0.771485 0.09449,-0.266291 0.22779,-0.501758 0.398437,-0.707031 l 0.002,-0.002 c 0.179228,-0.204286 0.395248,-0.371452 0.652344,-0.5 0.254404,-0.127202 0.543998,-0.191406 0.871094,-0.191406 h 4.839844 a 0.08118112,0.08118112 0 0 0 0.08203,-0.08008 v -1.773438 a 0.08118112,0.08118112 0 0 0 -0.08203,-0.08203 z m 0,0.162109 h 4.970703 v 1.611328 h -4.757812 c -0.348457,0 -0.664432,0.06952 -0.943359,0.208985 -0.275379,0.137689 -0.511317,0.317621 -0.705079,0.539062 a 0.08118112,0.08118112 0 0 0 0,0.002 c -0.184095,0.220915 -0.32698,0.473868 -0.427734,0.757813 -0.10033,0.274257 -0.152344,0.550216 -0.152344,0.826172 v 5.027344 c 0,0.276586 0.05181,0.556512 0.152344,0.839843 a 0.08118112,0.08118112 0 0 0 0,0.002 c 0.100843,0.275026 0.243994,0.523653 0.427734,0.744141 0.193762,0.221442 0.429701,0.401373 0.705079,0.539063 0.278927,0.139463 0.594902,0.208984 0.943359,0.208984 h 4.757812 v 1.611328 h -4.970703 c -0.467835,0 -0.922264,-0.09934 -1.365234,-0.298828 h -0.002 c -0.434933,-0.208972 -0.820579,-0.487916 -1.160156,-0.835938 -0.331026,-0.357159 -0.597754,-0.775028 -0.798829,-1.255859 -0.200379,-0.48788 -0.298828,-1.004567 -0.298828,-1.554687 v -5.027344 c 0,-0.55012 0.09864,-1.062306 0.298828,-1.541016 a 0.08118112,0.08118112 0 0 0 0,-0.002 c 0.201056,-0.489526 0.468448,-0.906137 0.798829,-1.253906 0.33995,-0.357384 0.72507,-0.635798 1.160156,-0.835938 a 0.08118112,0.08118112 0 0 0 0.002,0 c 0.443344,-0.208632 0.897262,-0.3125 1.365234,-0.3125 z m 0.386719,2.091797 c -0.321933,0 -0.607066,0.06366 -0.851562,0.195313 -0.240236,0.129357 -0.441351,0.297147 -0.59961,0.501953 -0.15706,0.203254 -0.276714,0.434239 -0.359375,0.691406 a 0.08118112,0.08118112 0 0 0 -0.002,0.002 c -0.07313,0.246804 -0.109375,0.491033 -0.109375,0.730469 v 2.025391 a 0.08118112,0.08118112 0 0 0 0.08203,0.08203 h 5.492188 a 0.08118112,0.08118112 0 0 0 0.08203,-0.08203 V 44.65625 a 0.08118112,0.08118112 0 0 0 -0.08203,-0.08008 h -3.785156 v -0.105469 c 0,-0.09231 0.02276,-0.154486 0.06055,-0.199219 0.05139,-0.04987 0.09027,-0.06641 0.111329,-0.06641 h 4.626953 a 0.08118112,0.08118112 0 0 0 0.08203,-0.08203 v -1.773438 a 0.08118112,0.08118112 0 0 0 -0.08203,-0.08008 z m 0,0.16211 h 4.583984 v 1.611328 h -4.544921 c -0.0849,0 -0.160047,0.04677 -0.230469,0.117187 a 0.08118112,0.08118112 0 0 0 -0.0039,0.0039 c -0.06825,0.07962 -0.09961,0.186444 -0.09961,0.306641 v 0.185547 a 0.08118112,0.08118112 0 0 0 0.08203,0.08203 h 3.785157 v 1.597656 h -5.332032 v -1.945312 c 0,-0.222163 0.03481,-0.449129 0.103516,-0.681641 v -0.002 c 0.07731,-0.239904 0.189171,-0.45322 0.333984,-0.640625 0.143962,-0.186304 0.32489,-0.339454 0.546875,-0.458984 0.217723,-0.117236 0.475104,-0.175781 0.775391,-0.175781 z m -1.839844,4.34375 a 0.08118112,0.08118112 0 0 0 -0.08203,0.08203 v 2.02539 c 0,0.239436 0.03644,0.486919 0.109375,0.742188 a 0.08118112,0.08118112 0 0 0 0.002,0.0039 c 0.08276,0.24827 0.202679,0.47495 0.359375,0.677735 0.158259,0.204805 0.359374,0.372597 0.59961,0.501953 0.244497,0.131653 0.529629,0.195312 0.851562,0.195312 h 4.666016 a 0.08118112,0.08118112 0 0 0 0.08203,-0.08008 v -1.773437 a 0.08118112,0.08118112 0 0 0 -0.08203,-0.08203 h -4.626953 c -0.02106,0 -0.05994,-0.01654 -0.111329,-0.06641 -0.03778,-0.04474 -0.06055,-0.10691 -0.06055,-0.199219 v -0.0918 h 3.785156 a 0.08118112,0.08118112 0 0 0 0.08203,-0.08008 v -1.773437 a 0.08118112,0.08118112 0 0 0 -0.08203,-0.08203 z m 0.08008,0.162109 h 5.332032 v 1.611328 h -3.785157 a 0.08118112,0.08118112 0 0 0 -0.08203,0.08203 v 0.171875 c 0,0.120196 0.03136,0.227017 0.09961,0.306641 a 0.08118112,0.08118112 0 0 0 0.0039,0.0039 c 0.07042,0.07042 0.145568,0.117188 0.230469,0.117188 h 4.544921 v 1.611328 h -4.583984 c -0.300287,0 -0.557668,-0.05855 -0.775391,-0.175781 -0.221985,-0.119529 -0.402913,-0.272681 -0.546875,-0.458985 -0.145524,-0.188326 -0.256741,-0.397178 -0.333984,-0.628906 -0.06853,-0.241071 -0.103516,-0.473745 -0.103516,-0.695313 z"
         id="path335" />
    </g>
    <g
       id="path308">
      <path
         style="color:#000000;-inkscape-font-specification:'SEGA LOGO FONT, Normal';stroke:none;stroke-linecap:butt;stroke-linejoin:miter;-inkscape-stroke:none"
         d="m 100.18849,46.936841 h 2.95999 q 0.56,0 1,-0.186666 0.45333,-0.186666 0.77333,-0.519999 0.32,-0.333332 0.49333,-0.799998 0.17334,-0.466665 0.17334,-1.013331 0,-0.546665 -0.17334,-1.01333 -0.17333,-0.466666 -0.49333,-0.799998 -0.32,-0.333333 -0.77333,-0.519999 -0.44,-0.186666 -1,-0.186666 h -5.213318 v -1.799996 h 5.213318 q 0.88,0 1.65333,0.333333 0.77333,0.333332 1.34666,0.919997 0.57334,0.586666 0.89334,1.37333 0.33333,0.786665 0.33333,1.693329 0,0.906665 -0.33333,1.693329 -0.33334,0.786665 -0.90667,1.37333 -0.56,0.586665 -1.33333,0.919998 -0.77333,0.333332 -1.65333,0.333332 h -1.18666 v 4.439989 h -1.77333 z M 97.935162,44.67018 h 5.213318 q 0.08,0 0.12,-0.08 0.04,-0.09333 0.04,-0.173333 0,-0.08 -0.04,-0.159999 -0.04,-0.09333 -0.12,-0.09333 h -5.213318 v -1.786663 h 5.213318 q 0.84,0 1.38666,0.506666 0.56,0.506665 0.56,1.533329 0,1.026664 -0.56,1.53333 -0.54666,0.506665 -1.38666,0.506665 h -3.43999 v 6.719983 h -1.773328 z"
         id="path339" />
      <path
         style="color:#000000;-inkscape-font-specification:'SEGA LOGO FONT, Normal';fill:#f9ffff;stroke:none;stroke-linecap:butt;stroke-linejoin:miter;-inkscape-stroke:none"
         d="m 97.935547,40.015625 a 0.08118112,0.08118112 0 0 0 -0.08203,0.08203 v 1.798828 a 0.08118112,0.08118112 0 0 0 0.08203,0.08203 h 5.212893 c 0.36431,0 0.68681,0.06008 0.96875,0.179687 0.29271,0.120527 0.54078,0.288085 0.74609,0.501953 0.2053,0.213851 0.36449,0.469745 0.47656,0.771485 0.11196,0.301411 0.16797,0.628511 0.16797,0.984375 0,0.355864 -0.056,0.684917 -0.16797,0.986328 -0.11207,0.301739 -0.27126,0.557633 -0.47656,0.771484 -0.20531,0.213868 -0.45338,0.381426 -0.74609,0.501953 -0.28194,0.119609 -0.60444,0.179688 -0.96875,0.179688 h -2.95899 a 0.08118112,0.08118112 0 0 0 -0.082,0.08203 v 6.240234 a 0.08118112,0.08118112 0 0 0 0.082,0.08008 h 1.77149 a 0.08118112,0.08118112 0 0 0 0.082,-0.08008 v -4.359375 h 1.10547 c 0.59691,0 1.15971,-0.113192 1.68554,-0.339843 0.52491,-0.226255 0.97846,-0.540399 1.35938,-0.939454 0.38886,-0.398201 0.69813,-0.863841 0.92383,-1.396484 0.22659,-0.534757 0.33984,-1.112172 0.33984,-1.726562 0,-0.61372 -0.11375,-1.188393 -0.33984,-1.722657 v -0.002 c -0.21701,-0.532938 -0.52091,-1.000146 -0.91016,-1.398437 -0.3896,-0.398661 -0.84829,-0.711313 -1.37305,-0.9375 -0.52583,-0.226652 -1.08863,-0.339844 -1.68554,-0.339844 z m 0.08008,0.162109 h 5.132815 c 0.57641,0 1.11582,0.108381 1.62109,0.326172 0.50635,0.218256 0.94547,0.518786 1.32031,0.902344 0.37483,0.383538 0.66735,0.832364 0.87696,1.347656 a 0.08118112,0.08118112 0 0 0 0,0.002 c 0.21785,0.514128 0.32812,1.065662 0.32812,1.660157 0,0.594495 -0.11027,1.147982 -0.32812,1.662109 -0.21854,0.515724 -0.51559,0.965846 -0.89063,1.349609 -0.36575,0.383165 -0.80044,0.682202 -1.30664,0.900391 -0.50527,0.217791 -1.04468,0.328125 -1.62109,0.328125 h -1.1875 a 0.08118112,0.08118112 0 0 0 -0.0801,0.08008 v 4.359375 h -1.61133 v -6.078125 h 2.87891 c 0.38235,0 0.72652,-0.06408 1.03125,-0.193359 v 0.002 c 0.31173,-0.128361 0.57943,-0.308487 0.80078,-0.539063 0.22137,-0.230591 0.39268,-0.507643 0.51172,-0.828125 0.11916,-0.320808 0.17773,-0.669945 0.17773,-1.042968 0,-0.373023 -0.0586,-0.720208 -0.17773,-1.041016 -0.11904,-0.320481 -0.29035,-0.597534 -0.51172,-0.828125 -0.22135,-0.230575 -0.48905,-0.410702 -0.80078,-0.539063 v 0.002 c -0.30473,-0.12928 -0.6489,-0.19336 -1.03125,-0.19336 h -5.132815 z m -0.08008,2.117188 a 0.08118112,0.08118112 0 0 0 -0.08203,0.08203 v 1.787109 a 0.08118112,0.08118112 0 0 0 0.08203,0.08008 h 5.212893 c 0.0218,0 0.026,7.11e-4 0.0449,0.04492 a 0.08118112,0.08118112 0 0 0 0.002,0.0039 c 0.0218,0.04365 0.0312,0.08324 0.0312,0.123047 0,0.03865 -0.009,0.08617 -0.0312,0.138671 -4.5e-4,9.06e-4 -0.002,-8.59e-4 -0.002,0 -0.0159,0.03139 -0.0194,0.03516 -0.0449,0.03516 h -5.212893 a 0.08118112,0.08118112 0 0 0 -0.08203,0.08008 v 8.507812 a 0.08118112,0.08118112 0 0 0 0.08203,0.08008 h 1.773437 a 0.08118112,0.08118112 0 0 0 0.08008,-0.08008 v -6.640625 h 3.359378 c 0.57632,0 1.06176,-0.175476 1.4414,-0.527343 0.39356,-0.356078 0.58594,-0.89455 0.58594,-1.59375 0,-0.699201 -0.19238,-1.23572 -0.58594,-1.591797 -0.37964,-0.351868 -0.86508,-0.529297 -1.4414,-0.529297 z m 0.08008,0.164062 h 5.132815 c 0.54368,0 0.98279,0.160689 1.33203,0.484375 0.3531,0.319476 0.5332,0.802973 0.5332,1.472657 0,0.669683 -0.1801,1.155132 -0.5332,1.474609 -0.34924,0.323686 -0.78835,0.484375 -1.33203,0.484375 h -3.439456 a 0.08118112,0.08118112 0 0 0 -0.08203,0.08203 v 6.638672 h -1.611328 v -8.34375 h 5.132815 c 0.0804,0 0.15701,-0.05231 0.19336,-0.125 a 0.08118112,0.08118112 0 0 0 0.002,-0.0039 c 0.03,-0.06994 0.0469,-0.140168 0.0469,-0.207031 -1e-5,-0.06545 -0.0166,-0.129588 -0.0469,-0.191407 -2.2e-4,-5.23e-4 -0.002,5.22e-4 -0.002,0 -0.0347,-0.07947 -0.10902,-0.142578 -0.19336,-0.142578 h -5.132815 z"
         id="path341" />
    </g>
    <g
       id="path310">
      <path
         style="color:#000000;-inkscape-font-specification:'SEGA LOGO FONT, Normal';stroke:none;stroke-linecap:butt;stroke-linejoin:miter;-inkscape-stroke:none"
         d="m 116.20177,53.176825 h -5.05332 q -0.72,0 -1.39999,-0.306666 -0.66667,-0.319999 -1.18667,-0.853331 -0.50666,-0.546665 -0.81333,-1.279997 -0.30666,-0.746664 -0.30666,-1.586662 v -5.026654 q 0,-0.839998 0.30666,-1.57333 0.30667,-0.746664 0.81333,-1.279996 0.52,-0.546666 1.18667,-0.853332 0.67999,-0.319999 1.39999,-0.319999 h 5.05332 v 1.773329 h -4.83998 q -0.50667,0 -0.90667,0.2 -0.4,0.199999 -0.68,0.519998 -0.26666,0.319999 -0.41333,0.733332 -0.14667,0.399999 -0.14667,0.799998 v 5.026654 q 0,0.399999 0.14667,0.813331 0.14667,0.399999 0.41333,0.719998 0.28,0.319999 0.68,0.519999 0.4,0.199999 0.90667,0.199999 h 4.83998 z m -4.42665,-4.026656 h 4.42665 v 1.773329 h -4.66665 q -0.46667,0 -0.81333,-0.186667 -0.34667,-0.186666 -0.57333,-0.479998 -0.22667,-0.293333 -0.34667,-0.653332 -0.10667,-0.373332 -0.10667,-0.719998 v -4.493322 q 0,-0.346666 0.10667,-0.706665 0.12,-0.373333 0.34667,-0.666665 0.22666,-0.293333 0.57333,-0.479999 0.34666,-0.186666 0.81333,-0.186666 h 4.66665 v 1.773329 h -4.42665 q -0.08,0 -0.17334,0.09333 -0.08,0.09333 -0.08,0.253333 V 48.8035 q 0,0.346666 0.17333,0.346666 z"
         id="path345" />
      <path
         style="color:#000000;-inkscape-font-specification:'SEGA LOGO FONT, Normal';fill:#f9ffff;stroke:none;stroke-linecap:butt;stroke-linejoin:miter;-inkscape-stroke:none"
         d="m 111.14844,40.015625 c -0.49203,0 -0.97028,0.110093 -1.4336,0.328125 -0.4538,0.208748 -0.85755,0.499591 -1.21093,0.871094 -0.34517,0.363339 -0.62225,0.798662 -0.83008,1.304687 -0.2087,0.499065 -0.3125,1.03364 -0.3125,1.603516 v 5.027344 c 0,0.569876 0.10399,1.109516 0.3125,1.617187 0.20781,0.496944 0.4836,0.932961 0.82812,1.304688 a 0.08118112,0.08118112 0 0 0 0.002,0.002 c 0.3531,0.362159 0.7561,0.651758 1.20898,0.86914 a 0.08118112,0.08118112 0 0 0 0.002,0 c 0.46312,0.208858 0.94207,0.314454 1.4336,0.314453 h 5.05273 a 0.08118112,0.08118112 0 0 0 0.082,-0.08008 v -1.773437 a 0.08118112,0.08118112 0 0 0 -0.082,-0.08203 h -4.83984 c -0.3271,0 -0.61474,-0.06421 -0.86914,-0.191407 -0.25747,-0.128734 -0.47492,-0.295308 -0.6543,-0.5 -0.17181,-0.206176 -0.30568,-0.437006 -0.40039,-0.695312 -0.095,-0.267777 -0.14062,-0.528412 -0.14062,-0.785156 v -5.027344 c 0,-0.256744 0.0459,-0.51303 0.14062,-0.771485 0.0945,-0.266292 0.22779,-0.501758 0.39844,-0.707031 l 0.002,-0.002 c 0.17923,-0.204288 0.3972,-0.371451 0.6543,-0.5 0.2544,-0.127202 0.54204,-0.191406 0.86914,-0.191406 h 4.83984 a 0.08118112,0.08118112 0 0 0 0.082,-0.08008 v -1.773438 a 0.08118112,0.08118112 0 0 0 -0.082,-0.08203 z m 0,0.162109 h 4.97265 v 1.611328 h -4.75976 c -0.34846,0 -0.66443,0.06952 -0.94336,0.208985 -0.27538,0.137689 -0.50936,0.317621 -0.70313,0.539062 a 0.08118112,0.08118112 0 0 0 -0.002,0.002 c -0.18409,0.220915 -0.32698,0.473869 -0.42773,0.757813 -0.10034,0.274256 -0.15039,0.550216 -0.15039,0.826172 v 5.027344 c 0,0.276587 0.0498,0.556512 0.15039,0.839843 a 0.08118112,0.08118112 0 0 0 0,0.002 c 0.10084,0.275026 0.24399,0.523653 0.42773,0.744141 a 0.08118112,0.08118112 0 0 0 0.002,0 c 0.19377,0.221442 0.42775,0.401373 0.70313,0.539063 0.27893,0.139463 0.5949,0.208984 0.94336,0.208984 h 4.75976 v 1.611328 h -4.97265 c -0.46784,0 -0.92227,-0.09934 -1.36524,-0.298828 h -0.002 c -0.43494,-0.208972 -0.82058,-0.487916 -1.16016,-0.835938 -0.33102,-0.357159 -0.59579,-0.775027 -0.79687,-1.255859 -0.20038,-0.48788 -0.30078,-1.004567 -0.30078,-1.554687 v -5.027344 c 0,-0.55012 0.10059,-1.062306 0.30078,-1.541016 a 0.08118112,0.08118112 0 0 0 0,-0.002 c 0.20106,-0.489526 0.4665,-0.906137 0.79687,-1.253906 0.33995,-0.357384 0.72702,-0.635798 1.16211,-0.835938 0.44334,-0.208632 0.89726,-0.3125 1.36524,-0.3125 z m 0.38672,2.091797 c -0.32194,0 -0.60707,0.06366 -0.85157,0.195313 -0.24023,0.129357 -0.44135,0.297146 -0.59961,0.501953 -0.15706,0.203254 -0.27671,0.434239 -0.35937,0.691406 a 0.08118112,0.08118112 0 0 0 0,0.002 c -0.0731,0.246804 -0.11133,0.491033 -0.11133,0.730469 v 4.492187 c 0,0.239437 0.0384,0.486919 0.11133,0.742188 a 0.08118112,0.08118112 0 0 0 0,0.0039 c 0.0828,0.248271 0.20267,0.47495 0.35937,0.677735 0.15826,0.204806 0.35938,0.372595 0.59961,0.501953 0.2445,0.131653 0.52963,0.195312 0.85157,0.195312 h 4.66601 a 0.08118112,0.08118112 0 0 0 0.082,-0.08008 v -1.773437 a 0.08118112,0.08118112 0 0 0 -0.082,-0.08203 h -4.42578 -0.0801 c -0.0307,0 -0.0374,-0.0026 -0.0566,-0.04102 -0.0192,-0.03842 -0.0352,-0.115819 -0.0352,-0.22461 v -4.332031 c 0,-0.09314 0.0221,-0.156354 0.0605,-0.201172 0.0499,-0.0475 0.0907,-0.06445 0.11133,-0.06445 h 4.42578 a 0.08118112,0.08118112 0 0 0 0.082,-0.08203 v -1.773438 a 0.08118112,0.08118112 0 0 0 -0.082,-0.08008 z m 0,0.16211 h 4.58593 v 1.611328 h -4.3457 c -0.0849,0 -0.16004,0.04677 -0.23047,0.117187 a 0.08118112,0.08118112 0 0 0 -0.004,0.0039 c -0.0683,0.07962 -0.0996,0.186444 -0.0996,0.306641 v 4.332031 c 0,0.12232 0.0122,0.219737 0.0508,0.296875 0.0386,0.07714 0.11829,0.13086 0.20312,0.13086 h 0.0801 4.3457 v 1.611328 h -4.58593 c -0.30029,0 -0.55768,-0.05855 -0.77539,-0.175781 -0.22199,-0.119531 -0.40292,-0.272682 -0.54688,-0.458985 -0.14553,-0.188326 -0.25674,-0.397178 -0.33398,-0.628906 -0.0685,-0.241071 -0.10352,-0.473746 -0.10352,-0.695313 v -4.492187 c 0,-0.222162 0.0348,-0.449129 0.10352,-0.681641 v -0.002 c 0.0773,-0.239903 0.18916,-0.45322 0.33398,-0.640625 0.14396,-0.186303 0.32489,-0.339454 0.54688,-0.458984 0.21771,-0.117235 0.4751,-0.175781 0.77539,-0.175781 z"
         id="path347" />
    </g>
  </g>
</svg>
