<?xml version="1.0" encoding="UTF-8" standalone="no"?>
<svg
   height="475"
   width="477.075"
   viewBox="0 0 95.41467 95"
   version="1.1"
   id="svg4"
   sodipodi:docname="Mario.svg"
   inkscape:version="1.2.2 (732a01da63, 2022-12-09)"
   xmlns:inkscape="http://www.inkscape.org/namespaces/inkscape"
   xmlns:sodipodi="http://sodipodi.sourceforge.net/DTD/sodipodi-0.dtd"
   xmlns="http://www.w3.org/2000/svg"
   xmlns:svg="http://www.w3.org/2000/svg">
  <defs
     id="defs8" />
  <sodipodi:namedview
     id="namedview6"
     pagecolor="#ffffff"
     bordercolor="#111111"
     borderopacity="1"
     inkscape:showpageshadow="0"
     inkscape:pageopacity="0"
     inkscape:pagecheckerboard="1"
     inkscape:deskcolor="#d1d1d1"
     showgrid="false"
     inkscape:zoom="1.7452632"
     inkscape:cx="195.38601"
     inkscape:cy="237.78649"
     inkscape:window-width="1920"
     inkscape:window-height="1009"
     inkscape:window-x="-8"
     inkscape:window-y="-8"
     inkscape:window-maximized="1"
     inkscape:current-layer="svg4" />
  <path
     d="m81.544 23.107c-2.4576 0.56738-2.6033 8.4226-0.4885 17.583 2.1148 9.1602 5.6892 16.157 8.1468 15.589 2.4576-0.56738 4.0039-7.3591 1.8891-16.519-2.114-9.161-7.089-17.221-9.547-16.653zm-74.732 45.567c-4.3819-5.246-5.8125-12.508-5.8125-21.598 0-13.988 5.8444-25.628 15.361-34.294 8.271-7.5316 19.351-11.782 31.346-11.782 14.072 0 24.859 4.3296 33.422 14.307 7.1343 8.3123 13.286 19.887 13.286 31.769 0 8.6494-1.4001 15.199-5.3973 20.352-3.2806 4.2293-7.8582 7.4188-13.293 9.7161-0.06661 4.9925-0.69044 10.405-6.2288 13.534-4.8461 2.7376-15.619 3.3214-22.451 3.3214-8.8851 0-17.766 0.13762-22.867-4.1518-3.277-2.754-4.646-8.417-4.932-12.512-5.015-2.058-9.284-4.89-12.434-8.661zm40.687-16.192c12.382 0 22.42-10.038 22.42-22.42s-10.038-22.42-22.42-22.42-22.42 10.038-22.42 22.42 10.038 22.42 22.42 22.42zm-41.403 2.67c2.4363 0.65281 6.2527-6.2145 8.6859-15.295 2.4332-9.0808 2.5617-16.936 0.12543-17.589-2.436-0.654-6.9895 4.617-9.4227 13.698s-1.8244 18.533 0.6119 19.186zm19.399 31.665c4.4687 2.9331 13.044 3.4463 21.174 3.4463 9.0167 0 19.014-0.03174 23.665-3.9387 2.741-2.3027 2.9062-8.7784 2.9062-11.753 0-1.2379-0.32761-3.0819-1.2455-4.2369-1.9638-2.4711-5.7605-4.0166-8.7187-5.3973-4.6188-2.1557-8.1814-2.4911-15.569-2.4911-6.813 0-11.988 0.65606-16.815 2.4911-3.8707 1.4716-8.5761 3.7606-9.9642 6.2276-0.52197 0.92768 0 2.2567 0 3.4066 0 3.4705 1.159 10.008 4.5669 12.245zm12.04-4.027c-1.3758 0-2.4911-1.3883-2.4911-8.3035 0-6.9153 1.1153-8.3035 2.4911-8.3035s2.4911 1.3883 2.4911 8.3035c0 6.9153-1.1153 8.3035-2.4911 8.3035zm19.928 0c-1.3758 0-2.4911-1.3883-2.4911-8.3035 0-6.9153 1.1153-8.3035 2.4911-8.3035s2.4911 1.3883 2.4911 8.3035c0 6.9153-1.1153 8.3035-2.4911 8.3035z"
     id="path2"
     style="fill:#ffffff;fill-opacity:1" />
</svg>
