<?xml version="1.0" encoding="UTF-8" standalone="no"?>
<!-- Created with Inkscape (http://www.inkscape.org/) -->

<svg
   width="119.18266mm"
   height="30.42708mm"
   viewBox="0 0 119.18266 30.42708"
   version="1.1"
   id="svg1"
   xml:space="preserve"
   inkscape:version="1.3 (0e150ed6c4, 2023-07-21)"
   sodipodi:docname="vircon32.svg"
   xmlns:inkscape="http://www.inkscape.org/namespaces/inkscape"
   xmlns:sodipodi="http://sodipodi.sourceforge.net/DTD/sodipodi-0.dtd"
   xmlns="http://www.w3.org/2000/svg"
   xmlns:svg="http://www.w3.org/2000/svg"><sodipodi:namedview
     id="namedview1"
     pagecolor="#ffffff"
     bordercolor="#000000"
     borderopacity="0.25"
     inkscape:showpageshadow="2"
     inkscape:pageopacity="0.0"
     inkscape:pagecheckerboard="0"
     inkscape:deskcolor="#d1d1d1"
     inkscape:document-units="mm"
     inkscape:zoom="1.672131"
     inkscape:cx="77.147064"
     inkscape:cy="310.68139"
     inkscape:window-width="3840"
     inkscape:window-height="2091"
     inkscape:window-x="0"
     inkscape:window-y="0"
     inkscape:window-maximized="1"
     inkscape:current-layer="layer1" /><defs
     id="defs1" /><g
     inkscape:label="Camada 1"
     inkscape:groupmode="layer"
     id="layer1"
     transform="translate(-51.626674,-59.734264)"><path
       style="fill:#ffffff;fill-opacity:1"
       d="m 51.799028,88.904574 c 0.09479,-0.69122 0.236837,-1.58419 0.315648,-1.98437 l 0.143293,-0.72761 h 59.275681 59.27568 l -0.17235,1.25677 c -0.0948,0.69123 -0.23684,1.5842 -0.31565,1.98438 l -0.14329,0.7276 H 110.90235 51.626674 Z m 88.449752,-5.62982 c -1.69406,-0.28863 -3.49348,-1.38394 -4.31633,-2.62735 -0.77584,-1.17238 -1.53133,-3.46116 -1.23519,-3.74207 0.11052,-0.10484 1.11553,-0.27397 2.23336,-0.37586 l 2.03241,-0.18524 0.28907,1.07354 c 0.75907,2.81896 4.397,2.88469 5.62806,0.10168 0.95324,-2.15496 -0.008,-4.19287 -2.11101,-4.47493 -1.26709,-0.16995 -1.30157,-0.28665 -0.76666,-2.59463 l 0.30661,-1.32292 1.29165,-0.14847 c 1.77316,-0.20381 2.80683,-1.32436 2.80683,-3.04273 0,-3.13884 -3.752,-3.31021 -4.77253,-0.21799 -0.25277,0.7659 -0.41463,0.91478 -0.87755,0.80721 -0.31219,-0.0725 -1.25223,-0.26936 -2.08898,-0.43736 -0.83674,-0.16801 -1.52135,-0.40155 -1.52135,-0.51898 0,-0.47181 0.79548,-2.06069 1.5544,-3.10472 1.25589,-1.72771 2.86933,-2.53298 5.36444,-2.67742 2.67722,-0.15499 4.05906,0.33909 5.48773,1.96215 2.36616,2.6881 1.94625,6.62107 -0.92282,8.64338 l -1.19077,0.83933 0.6837,0.49804 c 1.09867,0.80032 1.82923,2.4765 1.81812,4.17145 -0.0178,2.71544 -1.74374,5.2847 -4.4037,6.5554 -1.85843,0.8878 -3.4433,1.13304 -5.28949,0.81849 z m -45.836735,-0.36129 c -1.13431,-0.49425 -2.434419,-2.0775 -2.790413,-3.39812 -0.609191,-2.2599 0.263865,-5.5353 1.94899,-7.31192 1.736888,-1.83119 5.067512,-2.69064 7.245268,-1.8696 1.10422,0.41631 2.43474,1.81773 2.72549,2.87073 0.30391,1.10071 0.0645,1.33636 -1.36371,1.34233 -0.5338,0.002 -1.15888,0.0763 -1.38907,0.16465 -0.26483,0.10162 -0.41851,0.0176 -0.41851,-0.22891 0,-0.73197 -1.065037,-1.78382 -1.805142,-1.78279 -1.915224,0.003 -3.258843,1.89385 -3.438133,4.83926 -0.130986,2.15187 0.285465,2.83267 1.732759,2.83267 0.894662,0 2.19687,-0.95386 2.485879,-1.82088 0.163043,-0.48913 3.405887,-0.1447 3.405887,0.36175 0,0.18755 -0.38695,0.92 -0.8599,1.62767 -1.55042,2.31991 -5.051875,3.4309 -7.479395,2.37316 z m 13.347675,-0.35889 c -1.19859,-0.60709 -1.56074,-0.96862 -2.1866,-2.18281 -0.67267,-1.30502 -0.7362,-1.64636 -0.61552,-3.30729 0.31111,-4.28184 2.6355,-6.68884 6.71665,-6.95536 1.67302,-0.10925 2.08559,-0.0389 3.3073,0.56387 2.24432,1.10734 3.32568,3.23971 3.00906,5.93367 -0.61414,5.22532 -5.75587,8.21457 -10.23089,5.94792 z m 5.01454,-2.80669 c 1.28482,-1.15543 2.05951,-4.26963 1.45439,-5.84656 -0.20586,-0.53646 -1.46473,-1.2028 -2.26991,-1.20149 -3.1663,0.005 -4.84533,6.50442 -1.98208,7.67235 0.80397,0.32794 2.04722,0.0505 2.7976,-0.6243 z m -52.620836,3.15695 c 0,-0.062 -0.892969,-5.0912 -1.984375,-11.17596 -1.091406,-6.08476 -1.984375,-11.27277 -1.984375,-11.5289 0,-0.41006 0.284554,-0.46571 2.38125,-0.46571 1.309687,0 2.38125,0.0649 2.38125,0.14416 0,0.3349 2.69045,16.42555 2.803571,16.76719 0.06827,0.20619 2.233603,-3.5126 4.811843,-8.26399 l 4.68771,-8.63888 2.334505,-0.004 c 1.8659,-0.003 2.317333,0.07 2.248958,0.36585 -0.04705,0.20355 -2.875463,5.4423 -6.285361,11.64167 l -6.199816,11.27157 h -2.59758 c -1.428669,0 -2.59758,-0.0507 -2.59758,-0.11276 z m 14.814549,-0.21797 c -0.0012,-0.1819 0.555525,-3.0394 1.237087,-6.35 l 1.239203,-6.01927 h 1.823452 c 1.6146,0 1.807104,0.053 1.680732,0.46302 -0.13879,0.45028 -2.538774,11.91755 -2.538774,12.13042 0,0.0586 -0.773906,0.10656 -1.719791,0.10656 -1.198316,0 -1.720434,-0.10028 -1.721909,-0.33073 z m 6.452205,-0.13229 c 0.07466,-0.25466 0.623696,-2.84427 1.22008,-5.75469 0.596383,-2.91041 1.15154,-5.55955 1.233682,-5.88697 0.1342,-0.53493 0.310973,-0.59532 1.742785,-0.59532 h 1.593435 l -0.157165,0.9685 -0.157166,0.9685 0.850151,-0.80446 c 1.120211,-1.06 1.819734,-1.39798 2.883278,-1.39307 1.536027,0.007 1.67141,0.28091 0.895726,1.81165 -0.614745,1.21314 -0.780789,1.35941 -1.544247,1.36029 -2.248083,0.003 -3.436609,1.80451 -4.450335,6.74709 l -0.623815,3.0415 h -1.811078 c -1.600161,0 -1.795269,-0.0539 -1.675331,-0.46302 z m 37.860102,-0.12002 c 0.0776,-0.33417 0.61974,-2.91946 1.20482,-5.74509 0.58509,-2.82564 1.1335,-5.41525 1.2187,-5.75469 0.14211,-0.56622 0.29494,-0.61718 1.85105,-0.61718 1.6554,0 1.69234,0.0152 1.53774,0.63117 l -0.15842,0.63118 1.51358,-0.76347 c 2.56187,-1.29223 4.90896,-0.89378 5.80035,0.98469 0.54345,1.14524 0.53194,1.28601 -0.52489,6.41705 -0.50932,2.47282 -0.92604,4.5643 -0.92604,4.64771 0,0.0834 -0.77391,0.15167 -1.71979,0.15167 -1.1968,0 -1.7213,-0.10057 -1.72476,-0.33073 -0.003,-0.1819 0.38308,-2.26635 0.85734,-4.63211 0.9668,-4.82269 0.92335,-5.16903 -0.66566,-5.30483 -0.80741,-0.069 -1.10801,0.0765 -1.99896,0.96742 -1.09458,1.09457 -1.17895,1.3511 -2.49337,7.58046 l -0.33496,1.5875 -1.78888,0.0784 c -1.74666,0.0766 -1.78554,0.0641 -1.64785,-0.52917 z m 32.01863,-0.27685 c 0.094,-0.47295 0.54224,-1.6338 0.99613,-2.57969 0.67299,-1.4025 1.66336,-2.57404 5.368,-6.35 2.49851,-2.54661 4.75486,-5.04265 5.0141,-5.54673 0.72232,-1.40454 0.62398,-2.88619 -0.24094,-3.63017 -1.48421,-1.27666 -3.5736,-0.48104 -4.1606,1.58432 -0.17356,0.61066 -0.3864,1.19525 -0.47298,1.29909 -0.0866,0.10384 -1.10831,0.0413 -2.2705,-0.13895 l -2.11308,-0.32775 0.0779,-0.78709 c 0.13072,-1.3208 1.34639,-3.49626 2.43598,-4.35923 1.57274,-1.24564 3.12726,-1.67329 5.56867,-1.53196 2.59769,0.15038 4.20141,1.02819 5.38961,2.95007 0.66131,1.06963 0.78782,1.55173 0.79664,3.03571 0.0174,2.92678 -0.73323,4.15729 -5.45286,8.93894 l -4.0172,4.07 h 4.04508 c 3.52553,0 4.0251,0.0521 3.88945,0.40558 -0.0856,0.22307 -0.29751,1.17557 -0.47091,2.11667 l -0.31528,1.71108 h -7.11904 -7.11904 z M 77.880507,68.478534 c 0,-0.13835 0.128928,-0.85273 0.286507,-1.5875 l 0.286508,-1.33594 h 1.727909 1.727909 l -0.183618,1.22446 c -0.293582,1.95774 -0.285635,1.95054 -2.153731,1.95054 -0.930317,0 -1.691484,-0.1132 -1.691484,-0.25156 z"
       id="path1" /></g></svg>
