<?xml version="1.0" encoding="UTF-8" standalone="no"?>
<!-- Generator: Adobe Illustrator 13.0.0, SVG Export Plug-In . SVG Version: 6.00 Build 14948)  -->

<svg
   version="1.1"
   x="0px"
   y="0px"
   width="2000"
   height="500"
   viewBox="0 0 2000 500"
   enable-background="new 0 0 1280 720"
   xml:space="preserve"
   id="svg80"
   sodipodi:docname="esde.svg"
   inkscape:version="1.2.2 (732a01da63, 2022-12-09)"
   xmlns:inkscape="http://www.inkscape.org/namespaces/inkscape"
   xmlns:sodipodi="http://sodipodi.sourceforge.net/DTD/sodipodi-0.dtd"
   xmlns:xlink="http://www.w3.org/1999/xlink"
   xmlns="http://www.w3.org/2000/svg"
   xmlns:svg="http://www.w3.org/2000/svg"
   xmlns:rdf="http://www.w3.org/1999/02/22-rdf-syntax-ns#"
   xmlns:cc="http://creativecommons.org/ns#"
   xmlns:dc="http://purl.org/dc/elements/1.1/"><metadata
   id="metadata86"><rdf:RDF><cc:Work
       rdf:about=""><dc:format>image/svg+xml</dc:format><dc:type
         rdf:resource="http://purl.org/dc/dcmitype/StillImage" /></cc:Work></rdf:RDF></metadata><defs
   id="defs84"><rect
   x="431.46985"
   y="407.89227"
   width="516.34918"
   height="75.44828"
   id="rect433" />
	
	
	
	
	
	
	
	<linearGradient
   y2="227.33839"
   x2="323.80179"
   y1="542.32233"
   x1="118.3125"
   gradientUnits="userSpaceOnUse"
   id="SVGID_1_">
		<stop
   id="stop17"
   style="stop-color:#004E73"
   offset="0" />
		<stop
   id="stop19"
   style="stop-color:#00A1B0"
   offset="1" />
	</linearGradient>
	
	
	<linearGradient
   y2="288.38571"
   x2="399.80029"
   y1="540.37299"
   x1="144.813"
   gradientUnits="userSpaceOnUse"
   id="SVGID_2_">
		<stop
   id="stop26"
   style="stop-color:#D3D3D3"
   offset="0.3077" />
		<stop
   id="stop28"
   style="stop-color:#FFFFFF"
   offset="0.6752" />
	</linearGradient>
	
	
	<linearGradient
   y2="213.9668"
   x2="326.25729"
   y1="465.9541"
   x1="71.269997"
   gradientUnits="userSpaceOnUse"
   id="SVGID_3_"
   xlink:href="#SVGID_2_">
		<stop
   id="stop37"
   style="stop-color:#D3D3D3"
   offset="0.3077" />
		<stop
   id="stop39"
   style="stop-color:#FFFFFF"
   offset="0.6752" />
	</linearGradient>
	
	

		
		
		
		
		
		
		
		
		
		
		
		
		
		
		
		
	</defs><sodipodi:namedview
   pagecolor="#000000"
   bordercolor="#666666"
   borderopacity="1"
   objecttolerance="10"
   gridtolerance="10"
   guidetolerance="10"
   inkscape:pageopacity="0"
   inkscape:pageshadow="2"
   inkscape:window-width="1920"
   inkscape:window-height="1009"
   id="namedview82"
   showgrid="false"
   inkscape:zoom="0.42413161"
   inkscape:cx="582.3664"
   inkscape:cy="756.84055"
   inkscape:window-x="-8"
   inkscape:window-y="-8"
   inkscape:window-maximized="1"
   inkscape:current-layer="svg80"
   inkscape:snap-bbox="true"
   inkscape:showpageshadow="0"
   inkscape:pagecheckerboard="1"
   inkscape:deskcolor="#000000" />



<g
   id="Layer_2">
</g><g
   id="Layer_3">
</g><path
   d="M 568.44009,340.01149 Z"
   id="path3"
   inkscape:connector-curvature="0"
   style="fill:#c90012;stroke-width:1.44053" /><path
   d="M 571.01635,249.61164 Z"
   id="path5"
   inkscape:connector-curvature="0"
   style="fill:#c90012;stroke-width:2.04446" /><path
   d="M 571.01635,66.012839 Z"
   id="path7"
   inkscape:connector-curvature="0"
   style="fill:#c90012;stroke-width:2.04446" /><path
   d="M 571.01635,157.79452 Z"
   id="path9"
   inkscape:connector-curvature="0"
   style="fill:#c90012;stroke-width:2.04446" /><path
   d="M 568.44009,404.6809 Z"
   id="path11"
   inkscape:connector-curvature="0"
   style="fill:#c90012;stroke-width:1.44053" /><path
   d="M 571.01635,341.34683 Z"
   id="path13"
   inkscape:connector-curvature="0"
   style="fill:#c90012;stroke-width:2.04446" /><path
   d="M 571.01635,-25.806493 Z"
   id="path15"
   inkscape:connector-curvature="0"
   style="fill:#c90012;stroke-width:2.04446" /><path
   d="m 1973.8088,33.966458 c 0,-9.533388 -23.5963,-17.331734 -52.418,-17.331734 H 265.24792 c -28.85001,0 -69.12297,5.514075 -89.50963,12.256099 L 54.216106,69.060534 C 33.815294,75.802558 17.138737,89.114978 17.138737,98.648351 V 452.00456 c 0,9.53495 23.596403,17.33329 52.422817,17.33329 H 1725.6996 c 28.8265,0 69.1231,-5.51563 89.5098,-12.25453 l 121.5032,-40.15567 c 20.3915,-6.73423 37.0727,-20.05443 37.0727,-29.59094 z"
   id="path22"
   style="fill:#a1001d;fill-opacity:1;stroke-width:2.71384"
   inkscape:connector-curvature="0" /><g
   id="g9242"
   transform="matrix(1.1283046,0,0,1.0607646,-6.9158608,-26.161662)"><path
     enable-background="new    "
     d="M 502.86176,263.0766 468.64358,222.93185 C 462.89953,216.1945 451.54845,210.67732 443.4238,210.67888 H 417.825 c -8.12863,0.002 -14.77572,0.002 -14.77572,0.002 0,0 4.69738,-5.51407 10.44541,-12.2561 L 502.86176,93.583591 c 5.74537,-6.742023 3.79567,-12.256098 -4.32631,-12.256098 H 362.70137 c -8.1273,0 -19.4744,5.514075 -25.21977,12.256098 L 27.967161,456.6636 c -2.427152,2.84129 -4.677421,5.48287 -6.478169,7.59238 2.675852,3.13775 6.365123,5.08499 10.421461,5.08499 0.0067,0 0.01329,0 0.02128,0 H 164.86386 388.2789 c 8.1273,0 14.79166,-0.0202 14.8063,-0.0358 0.02,-0.0249 4.73328,-5.55776 10.47997,-12.2951 l 89.29792,-104.74553 c 5.74537,-6.73421 10.4454,-20.05443 10.4454,-29.58782 V 292.6645 c -0.003,-9.53649 -4.70136,-22.85515 -10.44673,-29.58781 z"
     id="path24"
     inkscape:connector-curvature="0"
     style="opacity:0.25;fill:#000406;fill-opacity:1;stroke-width:1.44053" /><path
     d="m 362.69074,275.34051 c -8.12332,0 -19.47441,-5.5172 -25.21579,-12.25923 l -34.19293,-40.12757 c -5.7467,-6.74203 -10.44938,-20.05757 -10.46002,-29.59252 l -0.016,-30.02937 c -0.0102,-9.53339 4.68805,-22.84735 10.43475,-29.58938 l 34.23414,-40.157229 c 5.74671,-6.742023 17.09248,-12.256098 25.21978,-12.256098 h 135.84072 c 8.12198,0 10.07169,5.514075 4.32632,12.256098 l -34.23414,40.157229 c -5.74538,6.74203 -17.09249,12.2561 -25.21978,12.2561 H 362.696 c -8.12863,0 -14.77571,7.79833 -14.77571,17.33172 v 30.02937 c 0,9.53339 6.64708,17.33173 14.77039,17.32861 l 80.73041,-0.0104 c 8.12197,-0.003 19.47573,5.5125 25.21977,12.25297 l 34.21819,40.14475 c 5.74537,6.7311 10.44541,20.05132 10.44541,29.58782 v 30.01221 c 0,9.53183 -4.69738,22.85205 -10.44541,29.58782 l -34.23282,40.16193 c -5.7467,6.73422 -17.09381,12.25452 -25.22111,12.25452 h -80.71178 c -8.12864,0 -19.4744,-5.51718 -25.21977,-12.25452 l -34.23416,-40.16193 c -5.74537,-6.73421 -3.80098,-12.25453 4.32632,-12.25453 h 135.84072 c 8.12863,0 14.77571,-7.79834 14.77571,-17.33173 v -30.01533 c 0,-9.5365 0,-17.33484 0.004,-17.33484 0.005,0 -6.64177,0 -14.7664,0 z"
     id="path31"
     style="fill:#fefefe;fill-opacity:1;stroke-width:1.44053"
     inkscape:connector-curvature="0" /><g
     id="g35"
     style="opacity:0.25;fill:#000000;fill-opacity:1"
     transform="matrix(1.3299464,0,0,1.560292,-5.4703518,-349.78893)">
		<path
   style="fill:#000000;fill-opacity:1"
   d="m 17.008,370.877 c 0,-6.109 0,-11.238 0,-11.393 0,-0.155 3.532,-3.818 7.854,-8.138 L 92.047,284.16 c 4.321,-4.321 12.855,-7.855 18.963,-7.855 h 102.15 c 6.108,0 7.574,3.534 3.253,7.855 l -67.197,67.182 c -4.32,4.321 -7.853,7.855 -7.853,7.855 0,0 4.998,0.002 11.11,0.006 l 19.228,0.007 c 6.108,0.004 10.75,4.993 10.318,11.086 l -1.114,15.593 c -0.433,6.092 -1.707,11.997 -2.833,13.122 -1.125,1.125 -5.576,5.58 -9.896,9.896 l -25.201,25.201 c -4.32,4.315 -7.885,7.885 -7.922,7.918 -0.034,0.034 4.933,0.064 11.041,0.062 h 17.979 c 6.108,-0.004 14.784,3.379 19.281,7.519 l 26.836,24.694 c 4.497,4.137 8.181,7.623 8.058,7.75 -0.126,0.126 -3.766,3.762 -8.087,8.083 l -34.827,34.85 -147.212,0.002 c -6.107,0 -11.105,-4.998 -11.105,-11.11 z"
   id="path33"
   inkscape:connector-curvature="0" />
	</g><path
     d="m 142.16701,340.01149 c -8.12199,0 -14.76774,-7.79834 -14.76774,-17.33173 v -30.01222 c 0,-9.53649 6.64708,-17.33483 14.76774,-17.33483 h 80.71443 c 8.12332,0 14.77039,-7.79835 14.77039,-17.33173 v -29.96697 c 0,-9.53651 -6.64707,-17.33485 -14.77039,-17.33485 h -80.71443 c -8.12199,0 -14.76774,-7.79834 -14.76774,-17.33173 v -30.02937 c 0,-9.53339 6.64708,-17.33172 14.76774,-17.33172 h 80.71443 c 8.12332,0 19.47442,-5.51407 25.2211,-12.25454 l 34.2448,-40.163469 c 5.7467,-6.738904 3.797,-12.252978 -4.32632,-12.252978 H 142.16701 c -8.12199,0 -19.47442,5.514074 -25.21979,12.256098 L 82.718395,133.74556 c -5.745369,6.74203 -10.449389,20.05599 -10.449389,29.58938 v 159.34482 c 0,9.53339 4.70402,22.85205 10.449389,29.58782 l 34.228825,40.16192 c 5.7467,6.73422 17.09646,12.25452 25.21979,12.25452 h 135.84471 c 8.12863,0 10.07301,-5.51718 4.32631,-12.25608 l -34.23416,-40.16816 c -5.74536,-6.74203 -17.09512,-12.25921 -25.2211,-12.25921 z"
     id="path42"
     style="fill:#ffffff;fill-opacity:1;stroke-width:1.44053"
     inkscape:connector-curvature="0" /></g><g
   aria-label="Mini Classic "
   transform="matrix(3.6182312,0,0,5.6750978,-951.40301,-2139.1463)"
   id="text431"
   style="font-size:48px;font-family:'Upheaval TT (BRK)';-inkscape-font-specification:'Upheaval TT (BRK)';white-space:pre;shape-inside:url(#rect433);display:inline;fill:#ffffff;fill-rule:evenodd;stroke:#ffffff;stroke-width:0;stroke-linejoin:round;stroke-opacity:0.992983"><path
     d="m 441.0707,441.89258 h 2.4 v 2.4 h 2.4 v 2.4 h 2.4 v -2.4 h 2.4 v -2.4 h 2.4 v 12 h 9.6 v -24 h -9.6 v 2.4 h -2.4 v 2.4 h -2.4 v 2.4 h -2.4 v -2.4 h -2.4 v -2.4 h -2.4 v -2.4 h -9.6 v 24 h 9.6 z"
     id="path9132" /><path
     d="m 465.07074,434.69258 h 7.2 v 14.4 h -7.2 v 4.8 h 24 v -4.8 h -7.2 v -14.4 h 7.2 v -4.8 h -24 z"
     id="path9134" /><path
     d="m 501.0707,441.89258 h 2.4 v 2.4 h 2.4 v 2.4 h 2.4 v 7.2 h 9.6 v -24 h -9.6 v 7.2 h -2.4 v -2.4 h -2.4 v -2.4 h -2.4 v -2.4 h -9.6 v 24 h 9.6 z"
     id="path9136" /><path
     d="m 520.27072,434.69258 h 7.2 v 14.4 h -7.2 v 4.8 h 24 v -4.8 h -7.2 v -14.4 h 7.2 v -4.8 h -24 z"
     id="path9138" /><path
     d="m 587.4707,451.49258 h 2.4 v -7.2 h -2.4 -7.2 v 4.8 h -7.2 v -14.4 h 7.2 v 4.8 h 9.6 v -7.2 h -2.4 v -2.4 h -14.4 -7.2 v 2.4 h -2.4 v 19.2 h 2.4 v 2.4 h 21.6 z"
     id="path9140" /><path
     d="m 592.27072,453.89258 h 26.4 v -4.8 h -16.8 v -19.2 h -9.6 z"
     id="path9142" /><path
     d="m 630.67074,444.29258 h 7.2 v 9.6 h 9.6 v -21.6 h -2.4 v -2.4 h -7.2 -14.4 v 2.4 h -2.4 v 21.6 h 9.6 z m 0,-9.6 h 7.2 v 4.8 h -7.2 z"
     id="path9144" /><path
     d="m 649.87076,453.89258 h 24 v -2.4 h 2.4 v -9.6 h -2.4 v -2.4 h -7.2 -7.2 v -4.8 h 16.8 v -4.8 h -24 v 2.4 h -2.4 v 9.6 h 2.4 v 2.4 h 14.4 v 4.8 h -16.8 z"
     id="path9146" /><path
     d="m 678.67078,453.89258 h 24 v -2.4 h 2.4 v -9.6 h -2.4 v -2.4 h -7.2 -7.2 v -4.8 h 16.8 v -4.8 h -24 v 2.4 h -2.4 v 9.6 h 2.4 v 2.4 h 14.4 v 4.8 h -16.8 z"
     id="path9148" /><path
     d="m 707.47079,434.69258 h 7.2 v 14.4 h -7.2 v 4.8 h 24 v -4.8 h -7.2 v -14.4 h 7.2 v -4.8 h -24 z"
     id="path9150" /><path
     d="m 757.87076,451.49258 h 2.4 v -7.2 h -2.4 -7.2 v 4.8 h -7.2 v -14.4 h 7.2 v 4.8 h 9.6 v -7.2 h -2.4 v -2.4 h -14.4 -7.2 v 2.4 h -2.4 v 19.2 h 2.4 v 2.4 h 21.6 z"
     id="path9152" /></g><g
   aria-label="Frontend"
   transform="matrix(1.789525,0,0,1.6014298,1333.753,742.99527)"
   id="text139082"
   style="font-size:129.795px;line-height:1.25;font-family:Akrobat;-inkscape-font-specification:Akrobat;text-align:center;letter-spacing:0px;word-spacing:0px;text-anchor:middle;stroke-width:0.676016"><path
     d="m -151.05502,-378.35048 v 30.89121 h 29.07408 v 9.86442 h -29.07408 v 40.23645 h -10.64319 v -90.8565 h 42.05358 v 9.86442 z"
     style="font-weight:600;-inkscape-font-specification:'Akrobat Semi-Bold';fill:#ffffff"
     id="path156490" /><path
     d="m -83.172501,-367.18811 q 4.15344,0 7.00893,0.90857 v 10.3836 q -3.89385,-1.42775 -8.56647,-1.42775 -6.879135,0 -11.032575,5.06201 -4.023645,4.93221 -4.023645,13.75827 v 41.14501 h -10.124009 v -68.27217 h 7.6579 l 1.42775,8.43668 q 5.581184,-9.99422 17.652119,-9.99422 z"
     style="font-weight:600;-inkscape-font-specification:'Akrobat Semi-Bold';fill:#ffffff"
     id="path156492" /><path
     d="m -45.272619,-295.80086 q -10.90278,0 -17.262735,-6.61954 -6.23016,-6.61955 -6.23016,-18.69048 v -20.897 q 0,-12.07093 6.23016,-18.69048 6.359955,-6.61954 17.262735,-6.61954 10.90278,0 17.13294,6.61954 6.23016,6.61955 6.23016,18.69048 v 20.897 q 0,12.07093 -6.23016,18.69048 -6.23016,6.61954 -17.13294,6.61954 z m 0,-9.86442 q 6.359955,0 9.734625,-3.76405 3.37467,-3.89385 3.37467,-11.68155 v -20.897 q 0,-7.7877 -3.37467,-11.55175 -3.37467,-3.76406 -9.734625,-3.76406 -6.359955,0 -9.734625,3.76406 -3.37467,3.76405 -3.37467,11.55175 v 20.897 q 0,7.7877 3.37467,11.68155 3.37467,3.76405 9.734625,3.76405 z"
     style="font-weight:600;-inkscape-font-specification:'Akrobat Semi-Bold';fill:#ffffff"
     id="path156494" /><path
     d="m 18.975788,-367.3179 q 8.82606,0 13.75827,6.61954 4.932209,6.48975 4.932209,20.11823 v 43.22173 H 27.542258 v -42.44296 q 0,-9.21545 -2.725695,-13.49868 -2.5959,-4.28324 -8.436675,-4.28324 -6.23016,0 -9.9942151,4.93221 -3.6342599,4.80242 -3.6342599,13.49868 v 41.79399 H -7.3725969 v -68.27217 h 7.65790489 l 1.29795001,8.04729 q 2.7256949,-4.67262 7.1387249,-7.13872 4.4130301,-2.5959 10.2538051,-2.5959 z"
     style="font-weight:600;-inkscape-font-specification:'Akrobat Semi-Bold';fill:#ffffff"
     id="path156496" /><path
     d="m 81.926313,-306.18446 v 9.60483 h -4.283234 q -9.734625,0 -15.186015,-5.84077 -5.321595,-5.84078 -5.321595,-16.09458 v -37.77035 h -10.12401 v -9.34524 h 10.12401 v -15.96478 h 10.12401 v 15.96478 h 13.239089 v 9.34524 H 67.259479 v 37.77035 q 0,6.23016 2.5959,9.34524 2.5959,2.98528 8.04729,2.98528 z"
     style="font-weight:600;-inkscape-font-specification:'Akrobat Semi-Bold';fill:#ffffff"
     id="path156498" /><path
     d="m 138.12729,-318.51498 q -0.90856,10.90278 -7.13872,16.74355 -6.10037,5.84078 -16.74356,5.84078 -10.51339,0 -16.613757,-6.61955 -6.100365,-6.61954 -6.100365,-18.43089 v -21.41617 q 0,-11.68155 6.23016,-18.3011 6.230162,-6.61954 16.743552,-6.61954 10.77299,0 17.00315,6.61954 6.35995,6.48975 6.35995,18.3011 v 15.18601 h -35.95321 v 6.23016 q 0,7.65791 3.24487,11.42196 3.24488,3.63426 9.34524,3.63426 6.23016,0 9.34524,-2.98528 3.24488,-2.98529 4.02365,-9.60483 z m -23.49289,-39.0683 q -6.10037,0 -9.47504,3.76406 -3.24487,3.76405 -3.24487,11.29216 v 6.87914 h 25.8292 v -6.87914 q 0,-7.52811 -3.37467,-11.29216 -3.37467,-3.76406 -9.73462,-3.76406 z"
     style="font-weight:600;-inkscape-font-specification:'Akrobat Semi-Bold';fill:#ffffff"
     id="path156500" /><path
     d="m 178.23391,-367.3179 q 8.82606,0 13.75827,6.61954 4.93221,6.48975 4.93221,20.11823 v 43.22173 h -10.12401 v -42.44296 q 0,-9.21545 -2.7257,-13.49868 -2.5959,-4.28324 -8.43667,-4.28324 -6.23016,0 -9.99422,4.93221 -3.63426,4.80242 -3.63426,13.49868 v 41.79399 h -10.12401 v -68.27217 h 7.65791 l 1.29795,8.04729 q 2.72569,-4.67262 7.13872,-7.13872 4.41303,-2.5959 10.25381,-2.5959 z"
     style="font-weight:600;-inkscape-font-specification:'Akrobat Semi-Bold';fill:#ffffff"
     id="path156502" /><path
     d="m 256.63005,-391.32998 v 93.97158 h -7.6579 l -1.03836,-6.35995 q -2.5959,3.63426 -6.87914,5.84077 -4.15344,2.07672 -8.82606,2.07672 -9.73462,0 -15.70519,-6.87913 -5.84078,-7.00893 -5.84078,-19.46925 v -19.20966 q 0,-12.46032 5.71098,-19.20966 5.84078,-6.74934 15.83499,-6.74934 4.15344,0 7.9175,1.68733 3.76405,1.68734 6.48975,4.80242 v -30.50183 z m -9.99421,49.97108 q 0,-7.39832 -3.37467,-11.81135 -3.37467,-4.54282 -9.21545,-4.54282 -6.48975,0 -9.73462,4.02364 -3.24488,3.89385 -3.24488,12.33053 v 19.20966 q 0,16.74355 12.9795,16.74355 5.58119,0 9.08565,-4.15344 3.50447,-4.28323 3.50447,-12.46032 z"
     style="font-weight:600;-inkscape-font-specification:'Akrobat Semi-Bold';fill:#ffffff"
     id="path156504" /></g><g
   aria-label="ES-DE"
   transform="matrix(1.7296986,0,0,1.4910044,-1512.9256,1090.7031)"
   id="text112598-2"
   style="font-size:195.9px;line-height:1.25;font-family:Akrobat;-inkscape-font-specification:Akrobat;text-align:center;letter-spacing:0px;word-spacing:0px;text-anchor:middle;stroke-width:1.02032"><path
     d="m 1199.7586,-625.13199 h 45.7192 v 16.8474 h -45.7192 z"
     style="font-weight:bold;-inkscape-font-specification:'Akrobat Bold';fill:#ffffff"
     id="path131025-3" /><path
     d="m 1265.853,-689.59405 h 34.0866 c 13.3212,0 23.7039,3.7874 31.1481,11.3622 7.4442,7.4442 11.1663,17.8922 11.1663,31.344 v 51.3258 c 0,13.5824 -3.7221,24.161 -11.1663,31.7358 -7.4442,7.5748 -17.7616,11.3622 -30.9522,11.3622 h -34.2825 z m 34.2825,118.3236 c 7.0524,0 12.4723,-2.0896 16.2597,-6.2688 3.918,-4.1792 5.877,-10.3174 5.877,-18.4146 v -50.5422 c 0,-7.9666 -1.8937,-13.9742 -5.6811,-18.0228 -3.7874,-4.1792 -9.2726,-6.2688 -16.4556,-6.2688 h -14.4966 v 99.5172 z"
     style="font-weight:bold;-inkscape-font-specification:'Akrobat Bold';fill:#ffffff"
     id="path131027-6" /><path
     d="m 1434.9144,-571.07455 v 18.6105 h -69.1527 v -137.13 h 67.1937 v 18.6105 h -47.4078 v 39.7677 h 43.6857 v 18.2187 h -43.6857 v 41.9226 z"
     style="font-weight:bold;-inkscape-font-specification:'Akrobat Bold';fill:#ffffff"
     id="path131029-8" /></g></svg>
