<?xml version="1.0" encoding="UTF-8" standalone="no"?>
<!-- Svg Vector Icons : http://www.onlinewebfonts.com/icon -->

<svg
   version="1.1"
   x="0px"
   y="0px"
   viewBox="0 0 1000 1000"
   enable-background="new 0 0 1000 1000"
   xml:space="preserve"
   id="svg6554"
   sodipodi:docname="5dd140446b3089f289c2508e3103fb4d.svg"
   inkscape:version="1.2.2 (732a01da63, 2022-12-09)"
   xmlns:inkscape="http://www.inkscape.org/namespaces/inkscape"
   xmlns:sodipodi="http://sodipodi.sourceforge.net/DTD/sodipodi-0.dtd"
   xmlns="http://www.w3.org/2000/svg"
   xmlns:svg="http://www.w3.org/2000/svg"><defs
   id="defs6558" /><sodipodi:namedview
   id="namedview6556"
   pagecolor="#ffffff"
   bordercolor="#111111"
   borderopacity="1"
   inkscape:showpageshadow="0"
   inkscape:pageopacity="0"
   inkscape:pagecheckerboard="1"
   inkscape:deskcolor="#d1d1d1"
   showgrid="false"
   inkscape:zoom="0.855"
   inkscape:cx="435.08772"
   inkscape:cy="500.5848"
   inkscape:window-width="1920"
   inkscape:window-height="1009"
   inkscape:window-x="-8"
   inkscape:window-y="-8"
   inkscape:window-maximized="1"
   inkscape:current-layer="svg6554" />
<metadata
   id="metadata6548"> Svg Vector Icons : http://www.onlinewebfonts.com/icon </metadata>
<g
   id="g6552"
   style="stroke:#000000;stroke-opacity:1;fill:#000000;fill-opacity:1"><path
     d="M 879,990 H 121 C 59.8,990 10,940.2 10,879 V 121 C 10,59.8 59.8,10 121,10 h 758 c 61.2,0 111,49.8 111,111 v 758 c 0,61.2 -49.8,111 -111,111 z M 123.33918,52.018129 c -56.799999,0 -77.695647,13.353903 -77.169004,70.151461 L 53.187719,879 c 0.525716,56.69756 12.181941,75.91095 68.981871,75.99942 l 750.98246,1.16959 c 56.69993,0.0883 74.00971,-12.18295 73.66023,-68.98188 L 942.13392,126.84795 C 941.78505,70.149026 935.79993,50.760625 879,50.848538 Z"
     id="path6550"
     style="fill:#ffffff;fill-opacity:1;stroke:none;stroke-opacity:1"
     sodipodi:nodetypes="ssssssssscsssssssc" /></g>
</svg>
