<?xml version="1.0" encoding="UTF-8" standalone="no"?>
<svg
   width="128"
   height="128"
   version="1.1"
   viewBox="0 0 128 128"
   id="svg4"
   xmlns="http://www.w3.org/2000/svg"
   xmlns:svg="http://www.w3.org/2000/svg">
  <defs
     id="defs8" />
  <path
     d="m 63.999999,17.090983 c -5.307206,0 -12.400847,25.54313 -16.694468,28.662627 -4.293619,3.119497 -30.778633,1.972687 -32.418649,7.020139 -1.640017,5.047453 20.460887,19.687168 22.100904,24.734622 1.640016,5.047452 -7.634984,29.881809 -3.341365,33.001309 4.29362,3.1195 25.046372,-13.37579 30.353578,-13.37579 5.307206,1e-6 26.059954,16.49529 30.353573,13.37579 4.29362,-3.11949 -4.981379,-27.953859 -3.341362,-33.001312 1.640017,-5.047452 23.74092,-19.687164 22.10091,-24.734616 C 111.4731,47.726299 84.988082,48.873106 80.694462,45.753609 76.400843,42.634111 69.307205,17.090982 63.999999,17.090983 Z"
     fill="#FFFFFF"
     stroke="#FFFFFF"
     stroke-linejoin="round"
     stroke-width="4"
     id="path2" />
</svg>
